<svg width="16" height="16" viewBox="0 0 16 16" fill="none" xmlns="http://www.w3.org/2000/svg">
<path d="M5 3V2C4.44772 2 4 2.44772 4 3H5ZM5 13H4C4 13.5523 4.44772 14 5 14V13ZM5 3V4H8V3V2H5V3ZM8 8V7H5V8V9H8V8ZM5 8H6V3H5H4V8H5ZM5 8V9H8.27273V8V7H5V8ZM8.27273 13V12H5V13V14H8.27273V13ZM5 13H6V8H5H4V13H5ZM11 10.5H10C10 11.2483 9.31036 12 8.27273 12V13V14C10.2476 14 12 12.5131 12 10.5H11ZM8.27273 8V9C9.31036 9 10 9.7517 10 10.5H11H12C12 8.48688 10.2476 7 8.27273 7V8ZM10.5 5.5H9.5C9.5 6.32843 8.82843 7 8 7V8V9C9.933 9 11.5 7.433 11.5 5.5H10.5ZM8 3V4C8.82843 4 9.5 4.67158 9.5 5.5H10.5H11.5C11.5 3.56701 9.933 2 8 2V3Z" fill="black"/>
</svg>
