<svg width="16" height="16" viewBox="0 0 16 16" fill="none" xmlns="http://www.w3.org/2000/svg">
<path d="M5 0.5V3.5M11 0.5V3.19231M3.5 14.5338H12.5C13.6046 14.5338 14.5 13.6384 14.5 12.5338V3.5C14.5 2.39543 13.6046 1.5 12.5 1.5H3.5C2.39543 1.5 1.5 2.39543 1.5 3.5V12.5338C1.5 13.6384 2.39543 14.5338 3.5 14.5338Z" stroke="black" stroke-linecap="round"/>
<path d="M0.999997 5.48769H15" stroke="black"/>
<path d="M4 3.5C4 2.94772 4.44772 2.5 5 2.5C5.55228 2.5 6 2.94772 6 3.5C6 4.05228 5.55228 4.5 5 4.5C4.44772 4.5 4 4.05228 4 3.5Z" fill="black"/>
<path d="M4 12C4 11.4477 4.44771 11 5 11C5.55228 11 6 11.4477 6 12C6 12.5523 5.55228 13 5 13C4.44771 13 4 12.5523 4 12Z" fill="black"/>
<path d="M7 12C7 11.4477 7.44771 11 8 11C8.55228 11 9 11.4477 9 12C9 12.5523 8.55228 13 8 13C7.44771 13 7 12.5523 7 12Z" fill="black"/>
<path d="M10 3.5C10 2.94772 10.4477 2.5 11 2.5C11.5523 2.5 12 2.94772 12 3.5C12 4.05228 11.5523 4.5 11 4.5C10.4477 4.5 10 4.05228 10 3.5Z" fill="black"/>
<path d="M10 7.99999C10 7.44771 10.4477 6.99999 11 6.99999C11.5523 6.99999 12 7.44771 12 7.99999C12 8.55228 11.5523 8.99999 11 8.99999C10.4477 8.99999 10 8.55228 10 7.99999Z" fill="black"/>
<path d="M7 7.99999C7 7.44771 7.44772 6.99999 8 6.99999C8.55228 6.99999 9 7.44771 9 7.99999C9 8.55228 8.55228 8.99999 8 8.99999C7.44772 8.99999 7 8.55228 7 7.99999Z" fill="black"/>
<path d="M4 7.99999C4 7.44771 4.44772 6.99999 5 6.99999C5.55228 6.99999 6 7.44771 6 7.99999C6 8.55228 5.55228 8.99999 5 8.99999C4.44772 8.99999 4 8.55228 4 7.99999Z" fill="black"/>
</svg>
