<svg width="16" height="16" viewBox="0 0 16 16" fill="none" xmlns="http://www.w3.org/2000/svg">
<path d="M8.00001 6.00003C9.10458 6.00003 10 6.89546 10 8.00003C10 9.10459 9.10457 10 8.00001 10C6.89545 10 6.00001 9.10459 6.00001 8.00003C6.00001 6.89546 6.89544 6.00003 8.00001 6.00003Z" fill="black" stroke="black"/>
<path d="M1.62489 7.63474L2.88235 6.46014C5.7639 3.77069 10.2359 3.7707 13.1174 6.46014L14.3756 7.63405C14.5874 7.83172 14.5874 8.16834 14.3756 8.36601L13.1174 9.53992C10.2359 12.2294 5.7639 12.2294 2.88235 9.53992L1.62489 8.36532C1.4131 8.16766 1.4131 7.83241 1.62489 7.63474Z" stroke="black"/>
</svg>
