<svg width="16" height="16" viewBox="0 0 16 16" fill="none" xmlns="http://www.w3.org/2000/svg">
<path d="M2.5 3.5C2.5 2.94772 2.94772 2.5 3.5 2.5H6.5C7.05228 2.5 7.5 2.94772 7.5 3.5V6.5C7.5 7.05228 7.05228 7.5 6.5 7.5H3.5C2.94772 7.5 2.5 7.05228 2.5 6.5V3.5Z" stroke="black"/>
<path d="M8.5 3.5C8.5 2.94772 8.94772 2.5 9.5 2.5H12.5C13.0523 2.5 13.5 2.94772 13.5 3.5V6.5C13.5 7.05228 13.0523 7.5 12.5 7.5H9.5C8.94772 7.5 8.5 7.05228 8.5 6.5V3.5Z" stroke="black"/>
<path d="M8.5 9.5C8.5 8.94772 8.94772 8.5 9.5 8.5H12.5C13.0523 8.5 13.5 8.94772 13.5 9.5V12.5C13.5 13.0523 13.0523 13.5 12.5 13.5H9.5C8.94772 13.5 8.5 13.0523 8.5 12.5V9.5Z" stroke="black"/>
<path d="M2.5 9.5C2.5 8.94772 2.94772 8.5 3.5 8.5H6.5C7.05228 8.5 7.5 8.94772 7.5 9.5V12.5C7.5 13.0523 7.05228 13.5 6.5 13.5H3.5C2.94772 13.5 2.5 13.0523 2.5 12.5V9.5Z" stroke="black"/>
</svg>
