<svg width="16" height="16" viewBox="0 0 16 16" fill="none" xmlns="http://www.w3.org/2000/svg">
<path d="M6 3.5C6 3.22386 5.77614 3 5.5 3C5.22386 3 5 3.22386 5 3.5H5.5H6ZM5 12.5C5 12.7761 5.22386 13 5.5 13C5.77614 13 6 12.7761 6 12.5H5.5H5ZM11 3.5C11 3.22386 10.7761 3 10.5 3C10.2239 3 10 3.22386 10 3.5H10.5H11ZM10 12.5C10 12.7761 10.2239 13 10.5 13C10.7761 13 11 12.7761 11 12.5H10.5H10ZM5.5 3.5H5V8H5.5H6V3.5H5.5ZM5.5 8H5V12.5H5.5H6V8H5.5ZM5.5 8V8.5H10.5V8V7.5H5.5V8ZM10.5 3.5H10V12.5H10.5H11V3.5H10.5Z" fill="black"/>
</svg>
