<svg width="16" height="16" viewBox="0 0 16 16" fill="none" xmlns="http://www.w3.org/2000/svg">
<path d="M5.5 3.00001V2.50001C5.22386 2.50001 5 2.72387 5 3.00001H5.5ZM5.5 13H5C5 13.2761 5.22386 13.5 5.5 13.5V13ZM5.5 3.00001V3.50001H8.5V3.00001V2.50001H5.5V3.00001ZM8.5 8.00001V7.50001H5.5V8.00001V8.50001H8.5V8.00001ZM5.5 8.00001H6V3.00001H5.5H5V8.00001H5.5ZM5.5 8.00001V8.50001H8.77273V8.00001V7.50001H5.5V8.00001ZM8.77273 13V12.5H5.5V13V13.5H8.77273V13ZM5.5 13H6V8.00001H5.5H5V13H5.5ZM11.5 10.5H11C11 11.5645 10.0447 12.5 8.77273 12.5V13V13.5C10.5133 13.5 12 12.1969 12 10.5H11.5ZM8.77273 8.00001V8.50001C10.0447 8.50001 11 9.4355 11 10.5H11.5H12C12 8.80309 10.5133 7.50001 8.77273 7.50001V8.00001ZM11 5.50001H10.5C10.5 6.60458 9.60457 7.50001 8.5 7.50001V8.00001V8.50001C10.1569 8.50001 11.5 7.15686 11.5 5.50001H11ZM8.5 3.00001V3.50001C9.60457 3.50001 10.5 4.39544 10.5 5.50001H11H11.5C11.5 3.84316 10.1569 2.50001 8.5 2.50001V3.00001Z" fill="black"/>
</svg>
