<svg width="16" height="16" viewBox="0 0 16 16" fill="none" xmlns="http://www.w3.org/2000/svg">
<path d="M8 11.5C9.99215 11.5 11.6578 12.3186 12.4639 13.4307C12.5652 13.5705 12.5889 13.6878 12.584 13.7793C12.5787 13.875 12.5395 13.9824 12.4521 14.0908C12.271 14.3154 11.916 14.5 11.5 14.5H4.5C4.08404 14.5 3.72897 14.3154 3.54785 14.0908C3.46054 13.9824 3.42126 13.875 3.41602 13.7793C3.41111 13.6878 3.43482 13.5705 3.53613 13.4307C4.34224 12.3186 6.00785 11.5 8 11.5Z" fill="black" stroke="black"/>
<path d="M1.8135 10C1.60996 9.36994 1.5 8.69781 1.5 8C1.5 4.41015 4.41015 1.5 8 1.5C11.5899 1.5 14.5 4.41015 14.5 8C14.5 8.69781 14.39 9.36994 14.1865 10" stroke="black" stroke-linecap="round"/>
<circle cx="8" cy="7" r="3" fill="black"/>
</svg>
