<svg width="16" height="16" viewBox="0 0 16 16" fill="none" xmlns="http://www.w3.org/2000/svg">
<path d="M10.4375 12C10.4773 12.177 10.5 12.3608 10.5 12.5498C10.5 13.9305 9.38071 15.0498 8 15.0498C6.61929 15.0498 5.5 13.9305 5.5 12.5498C5.50002 12.3608 5.52273 12.177 5.5625 12H6.60547C6.53822 12.1704 6.50003 12.3555 6.5 12.5498C6.5 13.3782 7.17157 14.0498 8 14.0498C8.82843 14.0498 9.5 13.3782 9.5 12.5498C9.49997 12.3555 9.46178 12.1704 9.39453 12H10.4375Z" fill="black"/>
<path d="M13 3.50002C13 4.88073 11.8807 6.00002 10.5 6.00002C9.11929 6.00002 8 4.88073 8 3.50002C8 2.11931 9.11929 1.00002 10.5 1.00002C11.8807 1.00002 13 2.11931 13 3.50002Z" fill="#101010"/>
<path d="M7.61621 1.51562C7.39189 1.841 7.22144 2.20636 7.11719 2.59863C5.33291 3.00066 4 4.59427 4 6.5V8.94238C4 9.68632 3.74686 10.4083 3.28223 10.9893L3.03027 11.3037C3.08257 11.4192 3.19803 11.4999 3.33301 11.5H12.667C12.8018 11.4999 12.9164 11.419 12.9688 11.3037L12.7178 10.9893C12.2531 10.4083 12 9.68632 12 8.94238V6.66309C12.3633 6.4905 12.6914 6.25652 12.9727 5.97559C12.9906 6.14794 13 6.32289 13 6.5V8.94238C13 9.45943 13.176 9.96149 13.499 10.3652L13.8906 10.8545L14 10.9912V11.167C13.9998 11.9031 13.4031 12.4998 12.667 12.5H3.33301C2.59689 12.4998 2.00018 11.9031 2 11.167V10.9912L2.10938 10.8545L2.50098 10.3652C2.82397 9.96149 3 9.45943 3 8.94238V6.5C3 3.86774 5.03415 1.71166 7.61621 1.51562Z" fill="black"/>
</svg>
