<svg width="16" height="16" viewBox="0 0 16 16" fill="none" xmlns="http://www.w3.org/2000/svg">
<path d="M3.5 6.5C3.5 4.01472 5.51472 2 8 2C10.4853 2 12.5 4.01472 12.5 6.5V8.94254C12.5 9.57312 12.7146 10.1849 13.1085 10.6773L13.5 11.1667C13.5 11.6269 13.1269 12 12.6667 12H3.33333C2.87309 12 2.5 11.6269 2.5 11.1667L2.89147 10.6773C3.28539 10.1849 3.5 9.57312 3.5 8.94254V6.5Z" stroke="black"/>
<path d="M10.4375 12C10.4773 12.177 10.5 12.3608 10.5 12.5498C10.5 13.9305 9.38071 15.0498 8 15.0498C6.61929 15.0498 5.5 13.9305 5.5 12.5498C5.50002 12.3608 5.52273 12.177 5.5625 12H6.60547C6.53822 12.1704 6.50003 12.3555 6.5 12.5498C6.5 13.3782 7.17157 14.0498 8 14.0498C8.82843 14.0498 9.5 13.3782 9.5 12.5498C9.49997 12.3555 9.46178 12.1704 9.39453 12H10.4375Z" fill="black"/>
</svg>
