<svg width="16" height="16" viewBox="0 0 16 16" fill="none" xmlns="http://www.w3.org/2000/svg">
<path d="M8 1.5C11.5899 1.5 14.5 4.41015 14.5 8C14.5 10.4055 13.1923 12.5039 11.25 13.6279V13.6289L11.249 13.6279C10.2929 14.1811 9.18408 14.5 8 14.5C4.41015 14.5 1.5 11.5899 1.5 8C1.5 4.41015 4.41015 1.5 8 1.5ZM4.48828 3.7666C3.27344 4.77546 2.5 6.29747 2.5 8C2.5 11.0376 4.96243 13.5 8 13.5C8.67221 13.5 9.31571 13.378 9.91113 13.1572C6.26004 11.5479 4.05659 7.73317 4.48828 3.7666ZM5.50684 3.68359C5.02094 7.34932 7.07377 10.9042 10.4912 12.3164C10.9774 8.65009 8.92515 5.09555 5.50684 3.68359ZM8 2.5C7.32759 2.5 6.68346 2.62094 6.08789 2.8418C9.73942 4.45066 11.9421 8.26574 11.5107 12.2324C12.7256 11.2236 13.5 9.70258 13.5 8C13.5 4.96243 11.0376 2.5 8 2.5Z" fill="black"/>
<path d="M9.77928 1.74902C10.1037 1.8412 10.4181 1.95653 10.7197 2.0957C9.79853 5.49711 6.69284 8 2.99998 8C2.48821 8 1.98798 7.95024 1.50291 7.8584C1.51019 7.51822 1.54394 7.18476 1.60155 6.85938C2.05347 6.95102 2.52102 7 2.99998 7C6.26202 7 9.00251 4.76861 9.77928 1.74902Z" fill="black"/>
<path d="M5.76367 14.0986C5.44448 13.9817 5.13724 13.8401 4.84375 13.6768C5.83928 10.3917 8.88983 8 12.5 8C13.1882 8 13.8559 8.08755 14.4932 8.25098C14.4798 8.59375 14.4414 8.92969 14.377 9.25684C13.7794 9.09088 13.1504 9 12.5 9C9.29325 9 6.59232 11.1569 5.76367 14.0986Z" fill="black"/>
</svg>
