<svg width="16" height="16" viewBox="0 0 16 16" fill="none" xmlns="http://www.w3.org/2000/svg">
<path d="M8 2C11.3137 2 14 4.68629 14 8C14 11.3137 11.3137 14 8 14C4.68629 14 2 11.3137 2 8C2 4.68629 4.68629 2 8 2Z" stroke="black"/>
<path d="M2.5 8L13.6429 8" stroke="black" stroke-linecap="round"/>
<path d="M8.00977 2.13965L8.31082 1.74044L8.01072 1.51412L7.70993 1.73953L8.00977 2.13965ZM11 7.98535H11.5V7.98533L11 7.98535ZM7.99023 13.8447L7.68914 14.2439L7.98928 14.4703L8.29011 14.2448L7.99023 13.8447ZM8.00977 2.13965L7.70871 2.53885C9.41795 3.82786 10.4999 5.79261 10.5 7.98537L11 7.98535L11.5 7.98533C11.4999 5.45048 10.2471 3.2007 8.31082 1.74044L8.00977 2.13965ZM11 7.98535H10.5C10.5 10.1856 9.40999 12.1557 7.69036 13.4446L7.99023 13.8447L8.29011 14.2448C10.2377 12.785 11.5 10.5292 11.5 7.98535H11ZM7.99023 13.8447L8.29133 13.4455C6.58222 12.1564 5.5 10.1925 5.5 8H5H4.5C4.5 10.5348 5.75322 12.7837 7.68914 14.2439L7.99023 13.8447ZM5 8H5.5C5.5 5.79943 6.58977 3.82857 8.3096 2.53977L8.00977 2.13965L7.70993 1.73953C5.76183 3.19938 4.5 5.45601 4.5 8H5Z" fill="black"/>
</svg>
