<svg width="16" height="16" viewBox="0 0 16 16" fill="none" xmlns="http://www.w3.org/2000/svg">
<path d="M6.33333 6.33333H9.66666M6.33333 6.33333V9.66667M6.33333 6.33333L6.33333 4.66667C6.33333 3.74619 5.58714 3 4.66667 3C3.74619 3 3 3.74619 3 4.66667C3 5.58714 3.74619 6.33333 4.66667 6.33333H6.33333ZM9.66666 6.33333V9.66667M9.66666 6.33333L11.3333 6.33333C12.2538 6.33333 13 5.58714 13 4.66667C13 3.74619 12.2538 3 11.3333 3C10.4129 3 9.66667 3.74619 9.66667 4.66667L9.66666 6.33333ZM9.66666 9.66667H6.33333M9.66666 9.66667L9.66667 11.3333C9.66667 12.2538 10.4129 13 11.3333 13C12.2538 13 13 12.2538 13 11.3333C13 10.4129 12.2538 9.66667 11.3333 9.66667H9.66666ZM6.33333 9.66667L6.33333 11.3333C6.33333 12.2538 5.58714 13 4.66667 13C3.74619 13 3 12.2538 3 11.3333C3 10.4129 3.74619 9.66667 4.66667 9.66667H6.33333Z" stroke="black"/>
</svg>
