<svg width="16" height="16" viewBox="0 0 16 16" fill="none" xmlns="http://www.w3.org/2000/svg">
<path d="M13 1C14.1046 1 15 1.89543 15 3V13C15 14.1046 14.1046 15 13 15H3C1.89543 15 1 14.1046 1 13V3C1 1.89543 1.89543 1 3 1H13ZM9.54199 6.02832C8.90659 5.43882 7.84001 5.3791 7.11523 5.85254C6.73692 6.09983 6.48525 6.47069 6.4375 6.89453C6.38944 7.3224 6.5572 7.7395 6.89062 8.04883C7.23686 8.3698 7.70594 8.46051 7.99609 8.52441C8.3507 8.60253 8.52621 8.65459 8.63672 8.75684C8.76009 8.8713 8.78565 8.98248 8.77637 9.06543C8.76661 9.15207 8.71145 9.27458 8.5459 9.38281C8.18174 9.62067 7.6241 9.56969 7.3457 9.31152C7.14325 9.124 6.82639 9.13556 6.63867 9.33789C6.45113 9.54034 6.46367 9.8572 6.66602 10.0449C7.3014 10.6342 8.36808 10.694 9.09277 10.2207C9.47127 9.97344 9.7227 9.60167 9.77051 9.17773C9.81858 8.74994 9.65164 8.33276 9.31836 8.02344C8.97211 7.7022 8.50218 7.61178 8.21191 7.54785C7.85704 7.46968 7.6808 7.41784 7.57031 7.31543C7.447 7.20095 7.42134 7.08879 7.43066 7.00586C7.44058 6.91925 7.49692 6.7965 7.66211 6.68848C8.02622 6.45095 8.58299 6.50277 8.86133 6.76074C9.06376 6.94855 9.38054 6.93583 9.56836 6.7334C9.75585 6.53108 9.744 6.21611 9.54199 6.02832ZM4.48242 5.53613C3.11166 5.53614 2 6.64779 2 8.01855C2.00029 9.38907 3.11184 10.5 4.48242 10.5H4.94434C5.22043 10.5 5.44427 10.2761 5.44434 10C5.44426 9.72392 5.22043 9.5 4.94434 9.5H4.48242C3.66412 9.5 3.00029 8.83679 3 8.01855C3 7.20008 3.66394 6.53614 4.48242 6.53613H4.94434C5.22043 6.53613 5.44427 6.31222 5.44434 6.03613C5.44432 5.76 5.22047 5.53613 4.94434 5.53613H4.48242ZM13.6475 5.55859C13.3836 5.47725 13.1039 5.62491 13.0225 5.88867L12.2773 8.30273L11.5332 5.88867C11.4518 5.62492 11.172 5.47726 10.9082 5.55859C10.6444 5.64004 10.4968 5.91978 10.5781 6.18359L11.7998 10.1475C11.8645 10.357 12.059 10.5 12.2783 10.5C12.4975 10.4998 12.6912 10.3569 12.7559 10.1475L13.9775 6.18359C14.0589 5.91979 13.9112 5.64005 13.6475 5.55859Z" fill="black"/>
</svg>
