<svg width="16" height="16" viewBox="0 0 16 16" fill="none" xmlns="http://www.w3.org/2000/svg">
<path d="M5 1.5H8.47656C8.60666 1.5 8.73188 1.55095 8.8252 1.6416L12.3486 5.06445C12.4454 5.15858 12.5 5.28787 12.5 5.42285V7.5H3.5V3C3.5 2.17157 4.17157 1.5 5 1.5Z" stroke="black"/>
<path d="M8.25 1.50002V4.66666C8.25 5.21895 8.69772 5.66666 9.25 5.66666H12.5" stroke="black"/>
<path d="M13 7C14.1046 7 15 7.89543 15 9V13C15 14.1046 14.1046 15 13 15H3C1.89543 15 1 14.1046 1 13V9C1 7.89543 1.89543 7 3 7H13ZM8.2998 9.00391C7.94624 8.9817 7.56402 9.05405 7.24121 9.24902C6.91568 9.44578 6.67759 9.75571 6.63184 10.1318C6.58534 10.5147 6.7499 10.8725 7.04395 11.125C7.34808 11.386 7.75496 11.456 7.98535 11.5029C8.28278 11.5635 8.40498 11.6014 8.47461 11.6611C8.51589 11.6966 8.53312 11.7262 8.54004 11.7422C8.54633 11.7571 8.54681 11.7679 8.5459 11.7754C8.54423 11.7874 8.52886 11.8507 8.41113 11.9219C8.28864 11.9958 8.1156 12.0369 7.93262 12.0254C7.74837 12.0137 7.60018 11.9519 7.5127 11.877C7.30323 11.6972 6.98749 11.7213 6.80762 11.9307C6.62786 12.1401 6.65203 12.4559 6.86133 12.6357C7.14755 12.8812 7.51798 13.0012 7.87012 13.0234C8.22376 13.0457 8.60582 12.9733 8.92871 12.7783C9.25428 12.5816 9.49324 12.2716 9.53906 11.8955C9.58548 11.5125 9.41925 11.1549 9.125 10.9023C8.82108 10.6417 8.41595 10.5704 8.18555 10.5234C7.88852 10.4629 7.76598 10.4258 7.69629 10.3662C7.65493 10.3307 7.63681 10.3012 7.62988 10.2852C7.62373 10.2706 7.62319 10.2604 7.62402 10.2529C7.62528 10.2426 7.63855 10.1777 7.75781 10.1055C7.88032 10.0314 8.05416 9.99043 8.2373 10.002C8.42159 10.0136 8.56969 10.0754 8.65723 10.1504C8.86678 10.3302 9.18345 10.3053 9.36328 10.0957C9.54243 9.88626 9.51861 9.5713 9.30957 9.3916C9.02331 9.14594 8.65209 9.02612 8.2998 9.00391ZM5 9C3.89543 9 3 9.89543 3 11C3 12.1046 3.89543 13 5 13H5.5C5.77614 13 6 12.7761 6 12.5C6 12.2239 5.77614 12 5.5 12H5C4.44772 12 4 11.5523 4 11C4 10.4477 4.44772 10 5 10H5.5C5.77614 10 6 9.77614 6 9.5C6 9.22386 5.77614 9 5.5 9H5ZM12.6582 9.02539C12.3962 8.93807 12.1127 9.07983 12.0254 9.3418L11.5 10.918L10.9746 9.3418C10.8873 9.07983 10.6038 8.93807 10.3418 9.02539C10.0798 9.11271 9.93807 9.39623 10.0254 9.6582L11.0254 12.6582C11.0934 12.8624 11.2848 13 11.5 13C11.7152 13 11.9066 12.8624 11.9746 12.6582L12.9746 9.6582C13.0619 9.39623 12.9202 9.11271 12.6582 9.02539Z" fill="#529F00"/>
</svg>
