<svg width="16" height="16" viewBox="0 0 16 16" fill="none" xmlns="http://www.w3.org/2000/svg">
<path d="M5 1.5H8.47656C8.60666 1.5 8.73188 1.55095 8.8252 1.6416L12.3486 5.06445C12.4454 5.15858 12.5 5.28787 12.5 5.42285V7.5H3.5V3C3.5 2.17157 4.17157 1.5 5 1.5Z" stroke="black"/>
<path d="M8.25 1.50002V4.66666C8.25 5.21895 8.69772 5.66666 9.25 5.66666H12.5" stroke="black"/>
<rect x="1.5" y="7.5" width="13" height="7" rx="1.5" stroke="black"/>
<path d="M5.5 9.5L4.99999 9.5C4.17157 9.50001 3.5 10.1716 3.5 11C3.5 11.8284 4.17157 12.5 5 12.5H5.5" stroke="black" stroke-linecap="round"/>
<path d="M8.9835 9.77088C8.60968 9.45009 7.9455 9.40824 7.5 9.67742C7.05451 9.9466 6.9964 10.4249 7.37021 10.7457C7.74403 11.0665 8.42613 10.9608 8.79995 11.2816C9.17376 11.6024 9.11565 12.0807 8.67016 12.3499C8.22466 12.619 7.56048 12.5772 7.18666 12.2564" stroke="black" stroke-linecap="round"/>
<path d="M10.5 9.50001L11.5 12.5L12.5 9.50001" stroke="black" stroke-linecap="round" stroke-linejoin="round"/>
</svg>
