<svg width="16" height="16" viewBox="0 0 16 16" fill="none" xmlns="http://www.w3.org/2000/svg">
<path d="M4 9.25V9.91602C4 10.1922 4.22386 10.416 4.5 10.416C4.77614 10.416 5 10.1922 5 9.91602V9.25H11V9.91602C11 10.1922 11.2239 10.416 11.5 10.416C11.7761 10.416 12 10.1922 12 9.91602V9.25H15V12C14.9998 13.3806 13.8806 14.5 12.5 14.5H3.5C2.1194 14.5 1.00018 13.3806 1 12V9.25H4ZM11.5 3.58301C13.4329 3.58301 14.9998 5.15016 15 7.08301V8.25H12V7.58301C11.9998 7.30702 11.776 7.08301 11.5 7.08301C11.224 7.08301 11.0002 7.30702 11 7.58301V8.25H5V7.58301C4.99982 7.30702 4.77603 7.08301 4.5 7.08301C4.22397 7.08301 4.00018 7.30702 4 7.58301V8.25H1V7.08301C1.00018 5.15016 2.56711 3.58301 4.5 3.58301H11.5Z" fill="black"/>
<path d="M5.08334 4.08334L5.08335 2.75C5.08335 2.19772 5.53107 1.75001 6.08335 1.75001H9.91667C10.469 1.75001 10.9167 2.19773 10.9167 2.75001L10.9167 4.08334" stroke="black" stroke-linecap="round"/>
</svg>
