<svg width="16" height="16" viewBox="0 0 16 16" fill="none" xmlns="http://www.w3.org/2000/svg">
<path d="M1.5 7.08334C1.5 5.42648 2.84315 4.08333 4.5 4.08333L11.5 4.08334C13.1569 4.08334 14.5 5.42648 14.5 7.08334V12C14.5 13.1046 13.6046 14 12.5 14L3.5 14C2.39543 14 1.5 13.1046 1.5 12V7.08334Z" stroke="black"/>
<path d="M5.08333 4.08334L5.08334 2.75C5.08334 2.19772 5.53106 1.75001 6.08334 1.75001H9.91666C10.4689 1.75001 10.9167 2.19773 10.9167 2.75001L10.9167 4.08334M1 8.75001H15M4.5 7.58334V9.91667M11.5 7.58334V9.91667" stroke="black" stroke-linecap="round"/>
</svg>
