<svg width="16" height="16" viewBox="0 0 16 16" fill="none" xmlns="http://www.w3.org/2000/svg">
<path d="M13.5 5.22222V10.7778C13.5 12.0051 11.0127 13 7.94445 13C4.8762 13 2.3889 12.0051 2.3889 10.7778V5.22222M13.5 5.22222C13.5 6.44952 11.0127 7.44444 7.94445 7.44444C4.8762 7.44444 2.3889 6.44952 2.3889 5.22222M13.5 5.22222C13.5 3.99492 11.0127 3 7.94445 3C4.8762 3 2.3889 3.99492 2.3889 5.22222M13.5 7.99999C13.5 9.22729 11.0127 10.2222 7.94445 10.2222C4.8762 10.2222 2.3889 9.22729 2.3889 7.99999" stroke="black" stroke-linecap="round"/>
</svg>
