<svg width="16" height="16" viewBox="0 0 16 16" fill="none" xmlns="http://www.w3.org/2000/svg">
<path d="M13 3.98779V12C13 13.1046 10.7614 14 8 14C5.23858 14 3 13.1046 3 12V3.98779M13 3.98779C13 5.09236 10.7614 5.98779 8 5.98779C5.23858 5.98779 3 5.09236 3 3.98779M13 3.98779C13 2.88322 10.7614 1.98779 8 1.98779C5.23858 1.98779 3 2.88322 3 3.98779M13 6.75C13 7.85457 10.7614 8.75 8 8.75C5.23858 8.75 3 7.85457 3 6.75M13 9.5C13 10.6046 10.7614 11.5 8 11.5C5.23858 11.5 3 10.6046 3 9.5" stroke="black" stroke-linecap="round"/>
</svg>
