<svg width="16" height="16" viewBox="0 0 16 16" fill="none" xmlns="http://www.w3.org/2000/svg">
<path d="M13.5 10V4.5C13.5 3.39543 12.6046 2.5 11.5 2.5H8M8 2.5V4M11.5 13.5L8 13.5L4.5 13.5C3.39543 13.5 2.5 12.6046 2.5 11.5V4.5C2.5 3.39543 3.39543 2.5 4.5 2.5H8M8 13.5V12" stroke="black" stroke-linecap="round"/>
<path d="M9.08008 5.5C10.5049 5.50005 11.6602 6.65521 11.6602 8.08008C11.6601 9.50491 10.5049 10.6601 9.08008 10.6602C7.65521 10.6602 6.50004 9.50493 6.5 8.08008C6.5 6.65519 7.65519 5.5 9.08008 5.5Z" stroke="black"/>
<path d="M13.1464 12.8536C13.3417 13.0488 13.6583 13.0488 13.8536 12.8536C14.0488 12.6583 14.0488 12.3417 13.8536 12.1464L13.5 12.5L13.1464 12.8536ZM11.04 10.04L10.6864 10.3936L13.1464 12.8536L13.5 12.5L13.8536 12.1464L11.3935 9.68645L11.04 10.04Z" fill="black"/>
</svg>
