<svg width="16" height="16" viewBox="0 0 16 16" fill="none" xmlns="http://www.w3.org/2000/svg">
<g id="docx">
<g id="Group 77">
<g id="Group 50">
<g id="Group 4">
<path id="Vector 26" d="M5 1.5H8.78516C8.9108 1.50008 9.03173 1.54756 9.12402 1.63281L12.8398 5.07031C12.942 5.16493 13 5.29826 13 5.4375V7.5H3.5V3C3.5 2.17157 4.17157 1.5 5 1.5Z" stroke="black"/>
<path id="Vector 27" d="M8.25 1.50002V4.66666C8.25 5.21895 8.69772 5.66666 9.25 5.66666H12.975" stroke="black"/>
</g>
<rect id="Rectangle 68" x="1.5" y="7.5" width="13" height="7" rx="1.5" stroke="black"/>
<path id="Rectangle 69" d="M12.5 9.49998L12 9.49999C11.1716 9.49999 10.5 10.1716 10.5 11C10.5 11.8284 11.1716 12.5 12 12.5H12.5" stroke="black" stroke-linecap="round"/>
<path id="Ellipse 57" d="M3.5 12.5H3C3 12.7761 3.22386 13 3.5 13V12.5ZM3.5 9.5V9C3.22386 9 3 9.22386 3 9.5H3.5ZM5.5 11H5C5 11.3923 4.85405 11.606 4.64036 11.7459C4.39421 11.907 4.00641 12 3.5 12V12.5V13C4.09816 13 4.71036 12.8953 5.18807 12.5825C5.69823 12.2486 6 11.7123 6 11H5.5ZM3.5 9.5V10C4.00641 10 4.39421 10.093 4.64036 10.2541C4.85405 10.394 5 10.6077 5 11H5.5H6C6 10.2877 5.69823 9.75142 5.18807 9.41745C4.71036 9.10473 4.09816 9 3.5 9V9.5ZM3.5 9.5H3V12.5H3.5H4V9.5H3.5Z" fill="black"/>
</g>
<path id="Rectangle 86" d="M8 9.5C8.55228 9.5 9 9.94772 9 10.5V11.5C9 12.0523 8.55228 12.5 8 12.5C7.44772 12.5 7 12.0523 7 11.5V10.5C7 9.94772 7.44772 9.5 8 9.5Z" stroke="black"/>
</g>
</g>
</svg>
