<svg width="16" height="16" viewBox="0 0 16 16" fill="none" xmlns="http://www.w3.org/2000/svg">
<g clip-path="url(#clip0_561_17)">
<path d="M2.4328 9.76871L1.61109 13.0556L5.16665 12.1667L12.2778 5.05556C13.0141 4.31918 13.0141 3.12527 12.2778 2.38889C11.5414 1.65251 10.3475 1.65251 9.61109 2.38889L2.69584 9.30414C2.56768 9.4323 2.47676 9.59288 2.4328 9.76871Z" stroke="black" stroke-linejoin="round"/>
<path d="M8.11109 3.55556L11.1111 6.55556" stroke="black"/>
<path d="M6.49998 13.5C6.49998 13.5 6.97605 12.6746 7.5 12.5C8.32843 12.2239 8.62677 13.5 9.50001 13.5C10.3732 13.5 10.6268 12.5 11.5 12.5C12.3732 12.5 12.6716 13.7761 13.5 13.5C14.0239 13.3254 14.5 12.5 14.5 12.5" stroke="black" stroke-linecap="round"/>
</g>
<defs>
<clipPath id="clip0_561_17">
<rect width="16" height="16" fill="white"/>
</clipPath>
</defs>
</svg>
