<svg width="16" height="16" viewBox="0 0 16 16" fill="none" xmlns="http://www.w3.org/2000/svg">
<path d="M8 6C9.10457 6 10 6.89543 10 8C10 9.10457 9.10457 10 8 10C6.89543 10 6 9.10457 6 8C6 6.89543 6.89543 6 8 6Z" stroke="black"/>
<path d="M1.62488 7.63471L2.88234 6.46011C5.76389 3.77066 10.2359 3.77067 13.1174 6.46011L14.3756 7.63402C14.5874 7.83169 14.5874 8.16831 14.3756 8.36598L13.1174 9.53989C10.2359 12.2293 5.76389 12.2293 2.88234 9.53989L1.62488 8.36529C1.41309 8.16762 1.41309 7.83238 1.62488 7.63471Z" stroke="black"/>
</svg>
