<svg width="16" height="16" viewBox="0 0 16 16" fill="none" xmlns="http://www.w3.org/2000/svg">
<path d="M4.5 1.5H8.5918C8.71356 1.5 8.83153 1.54448 8.92285 1.625L12.8311 5.07617C12.9385 5.17108 13 5.3078 13 5.45117V13C13 13.8284 12.3284 14.5 11.5 14.5H4.5C3.67157 14.5 3 13.8284 3 13V3C3 2.17157 3.67157 1.5 4.5 1.5Z" stroke="black"/>
<path d="M8 1.50001V4.66665C8 5.21894 8.44772 5.66665 9 5.66665H12.725" stroke="black"/>
<path d="M5 9.00001C5 9.00001 5.53726 8.00001 6.2 8.00001C6.86274 8.00001 6.73726 9.00001 7.4 9.00001C8.06274 9.00001 7.93726 8.00001 8.6 8.00001C9.26274 8.00001 9.13726 9.00001 9.8 9.00001C10.4627 9.00001 11 8.00001 11 8.00001M5 12C5 12 5.53726 11 6.2 11C6.86274 11 6.73726 12 7.4 12C8.06274 12 7.93726 11 8.6 11C9.26274 11 9.13726 12 9.8 12C10.4627 12 11 11 11 11" stroke="black" stroke-linecap="round"/>
</svg>
