<svg width="16" height="16" viewBox="0 0 16 16" fill="none" xmlns="http://www.w3.org/2000/svg">
<path d="M4 3.5H6.90234C7.02823 3.5 7.14978 3.54732 7.24219 3.63281L10.3398 6.49902C10.4419 6.59364 10.5 6.727 10.5 6.86621V13C10.5 13.8284 9.82842 14.5 9 14.5H4C3.17157 14.5 2.5 13.8284 2.5 13V5C2.5 4.17157 3.17157 3.5 4 3.5Z" stroke="black"/>
<path d="M6.5 3.42859V6C6.5 6.55228 6.94772 7 7.5 7H10.55" stroke="black"/>
<path d="M10.9678 1.00293C10.9785 1.00225 10.9891 1 11 1C11.0768 1 11.1489 1.0189 11.2139 1.0498C11.3495 1.09414 11.4756 1.16714 11.582 1.26562L14.6797 4.13184C14.884 4.32108 15 4.58773 15 4.86621V11C14.9998 12.1044 14.1044 12.9999 13 13H11V12H13C13.5521 11.9999 13.9998 11.5521 14 11V5.5H12C11.1717 5.5 10.5002 4.82828 10.5 4V2H8C7.44771 2 7 2.44772 7 3H6C6 1.96436 6.78724 1.11302 7.7959 1.01074L8 1H10.9023C10.9242 1 10.946 1.00151 10.9678 1.00293ZM11.5 4C11.5002 4.27599 11.724 4.5 12 4.5H13.6045L11.5 2.55273V4Z" fill="black"/>
</svg>
