<svg width="16" height="16" viewBox="0 0 16 16" fill="none" xmlns="http://www.w3.org/2000/svg">
<path d="M7.99985 6.17857C9.00575 6.17857 9.82106 6.99398 9.82114 7.99986C9.82114 9.00581 9.00579 9.82115 7.99985 9.82115C6.99396 9.82107 6.17856 9.00576 6.17856 7.99986C6.17863 6.99402 6.99401 6.17865 7.99985 6.17857Z" stroke="black"/>
<path d="M8 1.5V1H8L8 1.5ZM9.05957 2.41895L9.5546 2.3486L9.55452 2.34808L9.05957 2.41895ZM11.1963 3.30469L11.4962 3.70474L11.4963 3.70469L11.1963 3.30469ZM12.5967 3.4043L12.9505 3.05097L12.9502 3.05074L12.5967 3.4043ZM12.6953 4.80371L13.095 5.10413L13.0953 5.10371L12.6953 4.80371ZM13.5811 6.94043L13.6519 6.44548L13.6518 6.44546L13.5811 6.94043ZM14.5 8L15 8.00001V8H14.5ZM13.5811 9.05957L13.6513 9.55461L13.6519 9.55452L13.5811 9.05957ZM12.6953 11.1963L13.0953 10.8963L13.0952 10.8961L12.6953 11.1963ZM12.5967 12.5957L12.9502 12.9493L12.9504 12.949L12.5967 12.5957ZM11.1963 12.6953L10.8961 13.0952L10.8963 13.0953L11.1963 12.6953ZM9.05957 13.5811L9.55452 13.6519L9.55461 13.6513L9.05957 13.5811ZM8 14.5L8 15H8V14.5ZM6.94043 13.5811L6.44546 13.6518L6.44548 13.6519L6.94043 13.5811ZM4.80371 12.6953L5.10371 13.0953L5.10413 13.095L4.80371 12.6953ZM3.4043 12.5967L3.05074 12.9502L3.05097 12.9505L3.4043 12.5967ZM3.30469 11.1963L3.70469 11.4963L3.70474 11.4962L3.30469 11.1963ZM2.41895 9.05957L2.34808 9.55452L2.3486 9.5546L2.41895 9.05957ZM1.5 8H1V8.00001L1.5 8ZM2.41895 6.94043L2.34817 6.44546L2.34808 6.44548L2.41895 6.94043ZM3.30469 4.80371L2.90469 5.10371L2.90479 5.10385L3.30469 4.80371ZM3.4043 3.40332L3.05096 3.04955L3.05074 3.04977L3.4043 3.40332ZM4.80371 3.30469L5.10385 2.90479L5.10371 2.90469L4.80371 3.30469ZM6.94043 2.41895L6.44548 2.34808L6.44546 2.34817L6.94043 2.41895ZM6.22043 3.71122L6.41275 4.17276L6.22043 3.71122ZM6.86699 2.93254L6.37203 2.86176L6.86699 2.93254ZM5.21854 3.61604L5.51868 3.21614L5.21854 3.61604ZM3.71122 6.22043L3.24969 6.02811L3.71122 6.22043ZM2.93254 6.86699L3.00331 7.36196L2.93254 6.86699ZM3.71143 9.77912L4.17293 9.5867L3.71143 9.77912ZM2.93189 9.13246L2.86155 9.62749L2.93189 9.13246ZM6.86689 13.0663L7.36186 12.9956L6.86689 13.0663ZM6.22064 12.2879L6.02837 12.7495L6.22064 12.2879ZM10.7802 12.3829L10.4799 12.7827L10.7802 12.3829ZM9.77891 12.2877L9.58653 11.8262L9.77891 12.2877ZM12.2879 6.22064L11.8264 6.41292L12.2879 6.22064ZM13.0663 6.86689L12.9956 7.36186L13.0663 6.86689ZM9.77912 3.71143L9.5867 4.17293L9.77912 3.71143ZM10.7802 3.61663L10.4803 3.21658L10.7802 3.61663ZM5.2186 12.3835L4.91818 11.9838L5.2186 12.3835ZM13.0669 9.13256L13.1372 9.6276L13.0669 9.13256ZM12.2877 9.77891L11.8262 9.58653L12.2877 9.77891ZM9.13256 13.0669L8.63753 12.9966L9.13256 13.0669ZM12.3829 10.7802L12.7827 10.4799L12.3829 10.7802ZM8 1.5V2C8.28374 2 8.52435 2.20859 8.56462 2.48981L9.05957 2.41895L9.55452 2.34808C9.4438 1.57473 8.78166 1 8 1V1.5ZM9.05957 2.41895L8.56454 2.48929L8.63743 3.00223L9.13246 2.93189L9.62749 2.86155L9.5546 2.3486L9.05957 2.41895ZM10.7802 3.61663L11.0801 4.01668L11.4962 3.70474L11.1963 3.30469L10.8964 2.90463L10.4803 3.21658L10.7802 3.61663ZM11.1963 3.30469L11.4963 3.70469C11.7234 3.53434 12.0423 3.55699 12.2431 3.75785L12.5967 3.4043L12.9502 3.05074C12.3976 2.4981 11.5217 2.43566 10.8963 2.90469L11.1963 3.30469ZM12.5967 3.4043L12.2429 3.75763C12.4432 3.95821 12.4658 4.27636 12.2953 4.50371L12.6953 4.80371L13.0953 5.10371C13.5639 4.47893 13.5027 3.60394 12.9505 3.05097L12.5967 3.4043ZM12.6953 4.80371L12.2956 4.50329L11.9838 4.91818L12.3835 5.2186L12.7831 5.51902L13.095 5.10413L12.6953 4.80371ZM13.0663 6.86689L12.9956 7.36186L13.5103 7.4354L13.5811 6.94043L13.6518 6.44546L13.137 6.37191L13.0663 6.86689ZM13.5811 6.94043L13.5102 7.43538C13.7914 7.47565 14 7.71626 14 8H14.5H15C15 7.21834 14.4253 6.5562 13.6519 6.44548L13.5811 6.94043ZM14.5 8L14 7.99999C14 8.28374 13.7914 8.52436 13.5102 8.56462L13.5811 9.05957L13.6519 9.55452C14.4253 9.4438 15 8.78165 15 8.00001L14.5 8ZM13.5811 9.05957L13.5108 8.56453L12.9966 8.63753L13.0669 9.13256L13.1372 9.6276L13.6513 9.55461L13.5811 9.05957ZM12.3829 10.7802L11.983 11.0804L12.2955 11.4965L12.6953 11.1963L13.0952 10.8961L12.7827 10.4799L12.3829 10.7802ZM12.6953 11.1963L12.2953 11.4963C12.4658 11.7237 12.4432 12.0418 12.2429 12.2424L12.5967 12.5957L12.9504 12.949C13.5028 12.3961 13.5639 11.5211 13.0953 10.8963L12.6953 11.1963ZM12.5967 12.5957L12.2431 12.2421C12.0423 12.443 11.7234 12.4657 11.4963 12.2953L11.1963 12.6953L10.8963 13.0953C11.5217 13.5643 12.3976 13.5019 12.9502 12.9493L12.5967 12.5957ZM11.1963 12.6953L11.4965 12.2955L11.0804 11.983L10.7802 12.3829L10.4799 12.7827L10.8961 13.0952L11.1963 12.6953ZM9.13256 13.0669L8.63753 12.9966L8.56453 13.5108L9.05957 13.5811L9.55461 13.6513L9.6276 13.1372L9.13256 13.0669ZM9.05957 13.5811L8.56462 13.5102C8.52435 13.7914 8.28374 14 8 14V14.5V15C8.78166 15 9.4438 14.4253 9.55452 13.6519L9.05957 13.5811ZM8 14.5L8 14C7.71626 14 7.47565 13.7914 7.43538 13.5102L6.94043 13.5811L6.44548 13.6519C6.5562 14.4253 7.21835 15 8 15L8 14.5ZM6.94043 13.5811L7.4354 13.5103L7.36186 12.9956L6.86689 13.0663L6.37191 13.137L6.44546 13.6518L6.94043 13.5811ZM5.2186 12.3835L4.91818 11.9838L4.50329 12.2956L4.80371 12.6953L5.10413 13.095L5.51902 12.7831L5.2186 12.3835ZM4.80371 12.6953L4.50371 12.2953C4.27636 12.4658 3.95821 12.4432 3.75763 12.2429L3.4043 12.5967L3.05097 12.9505C3.60394 13.5027 4.47893 13.5639 5.10371 13.0953L4.80371 12.6953ZM3.4043 12.5967L3.75785 12.2431C3.55699 12.0423 3.53434 11.7234 3.70469 11.4963L3.30469 11.1963L2.90469 10.8963C2.43566 11.5217 2.4981 12.3976 3.05074 12.9502L3.4043 12.5967ZM3.30469 11.1963L3.70474 11.4962L4.01668 11.0801L3.61663 10.7802L3.21658 10.4803L2.90463 10.8964L3.30469 11.1963ZM2.93189 9.13246L3.00223 8.63743L2.48929 8.56454L2.41895 9.05957L2.3486 9.5546L2.86155 9.62749L2.93189 9.13246ZM2.41895 9.05957L2.48981 8.56462C2.2086 8.52436 2 8.28374 2 7.99999L1.5 8L1 8.00001C1.00001 8.78165 1.57473 9.4438 2.34808 9.55452L2.41895 9.05957ZM1.5 8H2C2 7.71626 2.20859 7.47565 2.48981 7.43538L2.41895 6.94043L2.34808 6.44548C1.57473 6.5562 1 7.21834 1 8H1.5ZM2.41895 6.94043L2.48972 7.4354L3.00331 7.36196L2.93254 6.86699L2.86176 6.37203L2.34817 6.44546L2.41895 6.94043ZM3.61604 5.21854L4.01593 4.9184L3.70458 4.50357L3.30469 4.80371L2.90479 5.10385L3.21614 5.51868L3.61604 5.21854ZM3.30469 4.80371L3.70469 4.50371C3.53434 4.27658 3.55699 3.95773 3.75785 3.75687L3.4043 3.40332L3.05074 3.04977C2.4981 3.60241 2.43566 4.47834 2.90469 5.10371L3.30469 4.80371ZM3.4043 3.40332L3.75763 3.75709C3.95821 3.55675 4.27635 3.53417 4.50371 3.70469L4.80371 3.30469L5.10371 2.90469C4.47893 2.4361 3.60394 2.49725 3.05096 3.04955L3.4043 3.40332ZM4.80371 3.30469L4.50357 3.70458L4.9184 4.01593L5.21854 3.61604L5.51868 3.21614L5.10385 2.90479L4.80371 3.30469ZM6.86699 2.93254L7.36196 3.00331L7.4354 2.48972L6.94043 2.41895L6.44546 2.34817L6.37203 2.86176L6.86699 2.93254ZM6.94043 2.41895L7.43538 2.48981C7.47565 2.20859 7.71626 2 8 2L8 1.5L8 1C7.21835 1 6.5562 1.57473 6.44548 2.34808L6.94043 2.41895ZM6.22043 3.71122L6.41275 4.17276C6.87081 3.98188 7.28106 3.56908 7.36196 3.00331L6.86699 2.93254L6.37203 2.86176C6.35123 3.00723 6.23325 3.16421 6.02811 3.24969L6.22043 3.71122ZM5.21854 3.61604L4.9184 4.01593C5.37307 4.35719 5.9492 4.36591 6.41275 4.17276L6.22043 3.71122L6.02811 3.24969C5.82801 3.33307 5.63902 3.30647 5.51868 3.21614L5.21854 3.61604ZM3.71122 6.22043L4.17276 6.41275C4.36591 5.9492 4.35719 5.37307 4.01593 4.9184L3.61604 5.21854L3.21614 5.51868C3.30647 5.63902 3.33307 5.82801 3.24969 6.02811L3.71122 6.22043ZM2.93254 6.86699L3.00331 7.36196C3.56908 7.28106 3.98188 6.87081 4.17276 6.41275L3.71122 6.22043L3.24969 6.02811C3.16421 6.23325 3.00723 6.35123 2.86176 6.37203L2.93254 6.86699ZM3.71143 9.77912L4.17293 9.5867C3.98184 9.12841 3.56855 8.7179 3.00223 8.63743L2.93189 9.13246L2.86155 9.62749C3.00711 9.64817 3.16432 9.76618 3.24994 9.97154L3.71143 9.77912ZM3.61663 10.7802L4.01668 11.0801C4.35744 10.6256 4.36608 10.05 4.17293 9.5867L3.71143 9.77912L3.24994 9.97154C3.33324 10.1713 3.30673 10.36 3.21658 10.4803L3.61663 10.7802ZM6.86689 13.0663L7.36186 12.9956C7.28106 12.4299 6.87092 12.0171 6.41292 11.8264L6.22064 12.2879L6.02837 12.7495C6.23332 12.8348 6.35116 12.9917 6.37191 13.137L6.86689 13.0663ZM10.7802 12.3829L11.0804 11.983C10.6259 11.6418 10.0499 11.633 9.58653 11.8262L9.77891 12.2877L9.97129 12.7492C10.1711 12.6659 10.3598 12.6925 10.4799 12.7827L10.7802 12.3829ZM12.2879 6.22064L11.8264 6.41292C12.0171 6.87092 12.4299 7.28106 12.9956 7.36186L13.0663 6.86689L13.137 6.37191C12.9917 6.35116 12.8348 6.23332 12.7495 6.02837L12.2879 6.22064ZM9.77912 3.71143L9.5867 4.17293C10.05 4.36608 10.6256 4.35744 11.0801 4.01668L10.7802 3.61663L10.4803 3.21658C10.36 3.30673 10.1713 3.33324 9.97154 3.24994L9.77912 3.71143ZM6.22064 12.2879L6.41292 11.8264C5.94922 11.6332 5.37281 11.6421 4.91818 11.9838L5.2186 12.3835L5.51902 12.7831C5.63925 12.6928 5.82823 12.6661 6.02837 12.7495L6.22064 12.2879ZM13.0669 9.13256L12.9966 8.63753C12.4304 8.71791 12.0172 9.12831 11.8262 9.58653L12.2877 9.77891L12.7492 9.97129C12.8347 9.76611 12.9918 9.64824 13.1372 9.6276L13.0669 9.13256ZM9.77891 12.2877L9.58653 11.8262C9.12831 12.0172 8.71791 12.4304 8.63753 12.9966L9.13256 13.0669L9.6276 13.1372C9.64824 12.9918 9.76611 12.8347 9.97129 12.7492L9.77891 12.2877ZM12.3835 5.2186L11.9838 4.91818C11.6421 5.37281 11.6332 5.94922 11.8264 6.41292L12.2879 6.22064L12.7495 6.02837C12.6661 5.82823 12.6928 5.63925 12.7831 5.51902L12.3835 5.2186ZM12.2877 9.77891L11.8262 9.58653C11.633 10.0499 11.6418 10.6259 11.983 11.0804L12.3829 10.7802L12.7827 10.4799C12.6925 10.3598 12.6659 10.1711 12.7492 9.97129L12.2877 9.77891ZM9.13246 2.93189L8.63743 3.00223C8.7179 3.56855 9.12841 3.98184 9.5867 4.17293L9.77912 3.71143L9.97154 3.24994C9.76618 3.16432 9.64817 3.00711 9.62749 2.86155L9.13246 2.93189Z" fill="black"/>
</svg>
