<svg width="16" height="16" viewBox="0 0 16 16" fill="none" xmlns="http://www.w3.org/2000/svg">
<path d="M9.54003 4.80398C9.43177 5.05801 9.54994 5.35171 9.80397 5.45997C10.058 5.56823 10.3517 5.45006 10.46 5.19603L10 5L9.54003 4.80398ZM12 3.50001L12.0086 3.00008L12 3.50001ZM12.5 8.70001L12.1037 8.39515V8.39515L12.5 8.70001ZM10 12L9.58397 11.7227C9.48169 11.8761 9.47215 12.0734 9.55916 12.2359C9.64617 12.3985 9.8156 12.5 10 12.5L10 12ZM14 12.5C14.2761 12.5 14.5 12.2761 14.5 12C14.5 11.7239 14.2761 11.5 14 11.5L14 12L14 12.5ZM10 5L10.46 5.19603C10.791 4.41925 11.2951 3.98793 11.9914 3.99993L12 3.50001L12.0086 3.00008C10.7526 2.97843 9.96077 3.8167 9.54003 4.80398L10 5ZM12 3.50001L11.9914 3.99993C12.8305 4.0144 13.5 4.72775 13.5 5.62023H14H14.5C14.5 4.2362 13.4457 3.02485 12.0086 3.00008L12 3.50001ZM14 5.62023H13.5C13.5 6.17467 13.2579 6.74801 12.9415 7.26305C12.6239 7.77996 12.2854 8.15896 12.1037 8.39515L12.5 8.70001L12.8963 9.00486C13.0279 8.83381 13.4394 8.3628 13.7935 7.78658C14.1487 7.20848 14.5 6.44556 14.5 5.62023H14ZM12.5 8.70001L12.1037 8.39515C11.1286 9.66271 10.5956 10.2052 9.58397 11.7227L10 12L10.416 12.2774C11.4044 10.7948 11.8714 10.3373 12.8963 9.00486L12.5 8.70001ZM10 12L10 12.5L14 12.5L14 12L14 11.5L10 11.5L10 12Z" fill="black"/>
<path d="M4 4C4 3.72386 3.77614 3.5 3.5 3.5C3.22386 3.5 3 3.72386 3 4H3.5H4ZM3 12.5C3 12.7761 3.22386 13 3.5 13C3.77614 13 4 12.7761 4 12.5H3.5H3ZM8 4C8 3.72386 7.77614 3.5 7.5 3.5C7.22386 3.5 7 3.72386 7 4H7.5H8ZM7 12.5C7 12.7761 7.22386 13 7.5 13C7.77614 13 8 12.7761 8 12.5H7.5H7ZM3.5 4H3V8H3.5H4V4H3.5ZM3.5 8H3V12.5H3.5H4V8H3.5ZM3.5 8V8.5H7.5V8V7.5H3.5V8ZM7.5 4H7V12.5H7.5H8V4H7.5Z" fill="black"/>
</svg>
