<svg width="16" height="16" viewBox="0 0 16 16" fill="none" xmlns="http://www.w3.org/2000/svg">
<path d="M9.66319 3.63046C9.4591 3.81648 9.44445 4.13272 9.63046 4.33681C9.81648 4.5409 10.1327 4.55555 10.3368 4.36954L10 4L9.66319 3.63046ZM11.5 3.5L11.5903 3.00822L11.5 3.5ZM13.5 5.5L13.0031 5.55523L13.5 5.5ZM10.5 8.00015V7.50015C10.2239 7.50015 10.0001 7.72393 10 8.00002C9.99993 8.27611 10.2237 8.50001 10.4997 8.50015L10.5 8.00015ZM13.5 10.5L13.9969 10.5552L13.5 10.5ZM11.5 12.5L11.5088 12.9999L11.5 12.5ZM10.3513 11.6442C10.1547 11.4502 9.83817 11.4522 9.64417 11.6487C9.45017 11.8453 9.45222 12.1618 9.64874 12.3558L10 12L10.3513 11.6442ZM10 4C10.3368 4.36954 10.3367 4.36965 10.3366 4.36975C10.3365 4.36978 10.3364 4.36989 10.3364 4.36995C10.3362 4.37008 10.3361 4.3702 10.336 4.3703C10.3357 4.37052 10.3355 4.3707 10.3354 4.37085C10.3351 4.37113 10.3349 4.37127 10.3349 4.37127C10.3349 4.37127 10.3355 4.37071 10.3368 4.36962C10.3393 4.36744 10.3442 4.36319 10.3514 4.35721C10.3659 4.3452 10.3892 4.32643 10.4203 4.30346C10.483 4.25707 10.5738 4.1961 10.6833 4.1393C10.9114 4.02097 11.1683 3.94743 11.4097 3.99177L11.5 3.5L11.5903 3.00822C11.0399 2.90713 10.5468 3.08359 10.2228 3.25162C10.0563 3.338 9.92054 3.4293 9.82576 3.49939C9.77806 3.53466 9.7399 3.56517 9.71254 3.58789C9.69884 3.59927 9.68778 3.60875 9.67952 3.61595C9.67538 3.61956 9.67194 3.6226 9.66922 3.62503C9.66786 3.62625 9.66667 3.62731 9.66566 3.62822C9.66516 3.62867 9.6647 3.62909 9.66429 3.62946C9.66409 3.62965 9.66389 3.62982 9.66371 3.62999C9.66362 3.63007 9.66349 3.63019 9.66344 3.63023C9.66331 3.63035 9.66319 3.63046 10 4ZM11.5 3.5L11.4097 3.99177C12.3227 4.15947 12.91 4.71787 13.0031 5.55523L13.5 5.5L13.9969 5.44477C13.846 4.08651 12.8501 3.23961 11.5903 3.00822L11.5 3.5ZM13.5 5.5L13.0031 5.55523C13.0518 5.99389 12.852 6.48515 12.5018 6.88813C12.1393 7.30535 11.7305 7.50014 11.5 7.50015L11.5 8.00015L11.5 8.50015C12.1427 8.50012 12.803 8.06618 13.2567 7.54401C13.7228 7.00759 14.0863 6.24878 13.9969 5.44477L13.5 5.5ZM11.5 8.00015L11.5 7.50015C11.036 7.50017 10.786 7.50017 10.6521 7.50016C10.5851 7.50016 10.5471 7.50016 10.5258 7.50015C10.5152 7.50015 10.5088 7.50015 10.505 7.50015C10.5032 7.50015 10.5019 7.50015 10.5012 7.50015C10.5008 7.50015 10.5006 7.50015 10.5004 7.50015C10.5004 7.50015 10.5003 7.50015 10.5003 7.50015C10.5003 7.50015 10.5003 7.50015 10.5003 7.50015C10.5003 7.50015 10.5003 7.50015 10.5003 7.50015C10.5003 7.50015 10.5003 7.50015 10.5003 7.50015C10.5003 7.50015 10.5003 7.50015 10.5 8.00015C10.4997 8.50015 10.4997 8.50015 10.4998 8.50015C10.4998 8.50015 10.4998 8.50015 10.4998 8.50015C10.4998 8.50015 10.4998 8.50015 10.4998 8.50015C10.4998 8.50015 10.4998 8.50015 10.4998 8.50015C10.4999 8.50015 10.4999 8.50015 10.5 8.50015C10.5002 8.50015 10.5005 8.50015 10.5009 8.50015C10.5016 8.50015 10.5029 8.50015 10.5048 8.50015C10.5086 8.50015 10.5151 8.50015 10.5257 8.50015C10.547 8.50016 10.585 8.50016 10.652 8.50016C10.786 8.50017 11.0361 8.50017 11.5 8.50015L11.5 8.00015ZM10.5 8.00015C10.5 8.50015 10.5 8.50015 10.5 8.50015C10.5 8.50015 10.5 8.50015 10.5 8.50015C10.5 8.50015 10.5 8.50015 10.5 8.50015C10.5 8.50015 10.5 8.50015 10.5 8.50015C10.5 8.50015 10.5 8.50015 10.5 8.50015C10.5 8.50015 10.5 8.50015 10.5 8.50015C10.5 8.50015 10.5 8.50015 10.5 8.50015C10.5 8.50015 10.5 8.50015 10.5 8.50015C10.5 8.50015 10.5 8.50015 10.5 8.50015C10.5 8.50015 10.5 8.50015 10.5 8.50015C10.5 8.50015 10.5 8.50015 10.5 8.50015C10.5 8.50015 10.5 8.50015 10.5 8.50015C10.5 8.50015 10.5 8.50015 10.5 8.50015C10.5 8.50015 10.5 8.50015 10.5 8.50015C10.5 8.50015 10.5 8.50015 10.5 8.50015C10.5 8.50015 10.5 8.50015 10.5 8.50015C10.5 8.50015 10.5 8.50015 10.5 8.50015C10.5 8.50015 10.5 8.50015 10.5 8.50015C10.5 8.50015 10.5 8.50015 10.5001 8.50015C10.5001 8.50015 10.5001 8.50015 10.5001 8.50015C10.5001 8.50015 10.5001 8.50015 10.5001 8.50015C10.5001 8.50015 10.5001 8.50015 10.5001 8.50015C10.5001 8.50015 10.5001 8.50015 10.5001 8.50015C10.5001 8.50015 10.5001 8.50015 10.5001 8.50015C10.5001 8.50015 10.5001 8.50015 10.5001 8.50015C10.5001 8.50015 10.5001 8.50015 10.5001 8.50015C10.5001 8.50015 10.5001 8.50015 10.5001 8.50015C10.5002 8.50015 10.5002 8.50015 10.5002 8.50015C10.5002 8.50015 10.5002 8.50015 10.5002 8.50015C10.5002 8.50015 10.5002 8.50015 10.5002 8.50015C10.5002 8.50015 10.5002 8.50015 10.5002 8.50015C10.5002 8.50015 10.5002 8.50015 10.5002 8.50015C10.5003 8.50015 10.5003 8.50015 10.5003 8.50015C10.5003 8.50015 10.5003 8.50015 10.5003 8.50015C10.5003 8.50015 10.5003 8.50015 10.5003 8.50015C10.5003 8.50015 10.5003 8.50015 10.5003 8.50015C10.5004 8.50015 10.5004 8.50015 10.5004 8.50015C10.5004 8.50015 10.5004 8.50015 10.5004 8.50015C10.5004 8.50015 10.5004 8.50015 10.5004 8.50015C10.5005 8.50015 10.5005 8.50015 10.5005 8.50015C10.5005 8.50015 10.5005 8.50015 10.5005 8.50015C10.5005 8.50015 10.5005 8.50015 10.5006 8.50015C10.5006 8.50015 10.5006 8.50015 10.5006 8.50015C10.5006 8.50015 10.5006 8.50015 10.5006 8.50015C10.5006 8.50015 10.5007 8.50015 10.5007 8.50015C10.5007 8.50015 10.5007 8.50015 10.5007 8.50015C10.5007 8.50015 10.5008 8.50015 10.5008 8.50015C10.5008 8.50015 10.5008 8.50015 10.5008 8.50015C10.5008 8.50015 10.5009 8.50015 10.5009 8.50015C10.5009 8.50015 10.5009 8.50015 10.5009 8.50015C10.501 8.50015 10.501 8.50015 10.501 8.50015C10.501 8.50015 10.501 8.50015 10.501 8.50015C10.5011 8.50015 10.5011 8.50015 10.5011 8.50015C10.5011 8.50015 10.5012 8.50015 10.5012 8.50015C10.5012 8.50015 10.5012 8.50015 10.5012 8.50015C10.5013 8.50015 10.5013 8.50015 10.5013 8.50015C10.5013 8.50015 10.5014 8.50015 10.5014 8.50015C10.5014 8.50015 10.5014 8.50015 10.5015 8.50015C10.5015 8.50015 10.5015 8.50015 10.5015 8.50015C10.5016 8.50015 10.5016 8.50015 10.5016 8.50015C10.5016 8.50015 10.5017 8.50015 10.5017 8.50015C10.5017 8.50015 10.5017 8.50015 10.5018 8.50015C10.5018 8.50015 10.5018 8.50015 10.5019 8.50015C10.5019 8.50015 10.5019 8.50015 10.502 8.50015C10.502 8.50015 10.502 8.50015 10.502 8.50015C10.5021 8.50015 10.5021 8.50015 10.5021 8.50015C10.5022 8.50015 10.5022 8.50015 10.5022 8.50015C10.5023 8.50015 10.5023 8.50015 10.5023 8.50015C10.5024 8.50015 10.5024 8.50015 10.5024 8.50015C10.5025 8.50015 10.5025 8.50015 10.5026 8.50015C10.5026 8.50015 10.5026 8.50015 10.5027 8.50015C10.5027 8.50015 10.5027 8.50015 10.5028 8.50015C10.5028 8.50015 10.5029 8.50015 10.5029 8.50015C10.5029 8.50015 10.503 8.50015 10.503 8.50015C10.5031 8.50015 10.5031 8.50015 10.5031 8.50015C10.5032 8.50015 10.5032 8.50015 10.5033 8.50015C10.5033 8.50015 10.5034 8.50015 10.5034 8.50015C10.5034 8.50015 10.5035 8.50015 10.5035 8.50015C10.5036 8.50015 10.5036 8.50015 10.5037 8.50015C10.5037 8.50015 10.5038 8.50015 10.5038 8.50015C10.5039 8.50015 10.5039 8.50015 10.504 8.50015C10.504 8.50015 10.5041 8.50015 10.5041 8.50015C10.5042 8.50015 10.5042 8.50015 10.5043 8.50015C10.5043 8.50015 10.5044 8.50015 10.5044 8.50015C10.5045 8.50015 10.5045 8.50015 10.5046 8.50015C10.5046 8.50015 10.5047 8.50015 10.5047 8.50015C10.5048 8.50015 10.5049 8.50015 10.5049 8.50015C10.505 8.50015 10.505 8.50015 10.5051 8.50015C10.5051 8.50015 10.5052 8.50015 10.5053 8.50015C10.5053 8.50015 10.5054 8.50015 10.5054 8.50015C10.5055 8.50015 10.5056 8.50015 10.5056 8.50015C10.5057 8.50015 10.5057 8.50015 10.5058 8.50015C10.5059 8.50015 10.5059 8.50015 10.506 8.50015C10.5061 8.50015 10.5061 8.50015 10.5062 8.50015C10.5063 8.50015 10.5063 8.50015 10.5064 8.50015C10.5065 8.50015 10.5065 8.50015 10.5066 8.50015C10.5067 8.50015 10.5067 8.50015 10.5068 8.50015C10.5069 8.50015 10.5069 8.50015 10.507 8.50015C10.5071 8.50015 10.5072 8.50015 10.5072 8.50015C10.5073 8.50015 10.5074 8.50015 10.5075 8.50015C10.5075 8.50015 10.5076 8.50015 10.5077 8.50015C10.5078 8.50015 10.5078 8.50015 10.5079 8.50015C10.508 8.50015 10.5081 8.50015 10.5081 8.50015C10.5082 8.50015 10.5083 8.50015 10.5084 8.50015C10.5085 8.50015 10.5085 8.50015 10.5086 8.50015C10.5087 8.50015 10.5088 8.50015 10.5089 8.50015C10.509 8.50015 10.509 8.50015 10.5091 8.50015C10.5092 8.50015 10.5093 8.50015 10.5094 8.50015C10.5095 8.50015 10.5096 8.50015 10.5096 8.50015C10.5097 8.50015 10.5098 8.50015 10.5099 8.50015C10.51 8.50015 10.5101 8.50015 10.5102 8.50015C10.5103 8.50015 10.5104 8.50015 10.5105 8.50015C10.5106 8.50015 10.5107 8.50015 10.5108 8.50015C10.5108 8.50015 10.5109 8.50015 10.511 8.50015C10.5111 8.50015 10.5112 8.50015 10.5113 8.50015C10.5114 8.50015 10.5115 8.50015 10.5116 8.50015C10.5117 8.50015 10.5118 8.50015 10.5119 8.50015C10.512 8.50015 10.5121 8.50015 10.5122 8.50015C10.5123 8.50015 10.5125 8.50015 10.5126 8.50015C10.5127 8.50015 10.5128 8.50015 10.5129 8.50015C10.513 8.50015 10.5131 8.50015 10.5132 8.50015C10.5133 8.50015 10.5134 8.50015 10.5135 8.50015C10.5136 8.50015 10.5138 8.50015 10.5139 8.50015C10.514 8.50015 10.5141 8.50015 10.5142 8.50015C10.5143 8.50015 10.5144 8.50015 10.5146 8.50015C10.5147 8.50015 10.5148 8.50015 10.5149 8.50015C10.515 8.50015 10.5151 8.50015 10.5153 8.50015C10.5154 8.50015 10.5155 8.50015 10.5156 8.50015C10.5157 8.50015 10.5159 8.50015 10.516 8.50015C10.5161 8.50015 10.5162 8.50015 10.5164 8.50015C10.5165 8.50015 10.5166 8.50015 10.5168 8.50015C10.5169 8.50015 10.517 8.50015 10.5171 8.50015C10.5173 8.50015 10.5174 8.50015 10.5175 8.50015C10.5177 8.50015 10.5178 8.50015 10.5179 8.50015C10.5181 8.50015 10.5182 8.50015 10.5183 8.50015C10.5185 8.50015 10.5186 8.50015 10.5187 8.50015C10.5189 8.50015 10.519 8.50015 10.5192 8.50015C10.5193 8.50015 10.5194 8.50015 10.5196 8.50015C10.5197 8.50015 10.5199 8.50015 10.52 8.50015C10.5202 8.50015 10.5203 8.50015 10.5204 8.50015C10.5206 8.50015 10.5207 8.50015 10.5209 8.50015C10.521 8.50015 10.5212 8.50015 10.5213 8.50015C10.5215 8.50015 10.5216 8.50015 10.5218 8.50015C10.5219 8.50015 10.5221 8.50015 10.5222 8.50015C10.5224 8.50015 10.5226 8.50015 10.5227 8.50015C10.5229 8.50015 10.523 8.50015 10.5232 8.50015C10.5233 8.50015 10.5235 8.50015 10.5237 8.50015C10.5238 8.50015 10.524 8.50015 10.5242 8.50015C10.5243 8.50015 10.5245 8.50015 10.5246 8.50015C10.5248 8.50015 10.525 8.50015 10.5251 8.50015C10.5253 8.50015 10.5255 8.50015 10.5257 8.50015C10.5258 8.50015 10.526 8.50015 10.5262 8.50015C10.5263 8.50015 10.5265 8.50015 10.5267 8.50015C10.5269 8.50015 10.527 8.50015 10.5272 8.50015C10.5274 8.50015 10.5276 8.50015 10.5277 8.50015C10.5279 8.50015 10.5281 8.50015 10.5283 8.50015C10.5285 8.50015 10.5286 8.50015 10.5288 8.50015C10.529 8.50015 10.5292 8.50015 10.5294 8.50015C10.5296 8.50015 10.5298 8.50015 10.5299 8.50015C10.5301 8.50015 10.5303 8.50015 10.5305 8.50015C10.5307 8.50015 10.5309 8.50015 10.5311 8.50015C10.5313 8.50015 10.5315 8.50015 10.5317 8.50015C10.5319 8.50015 10.5321 8.50015 10.5323 8.50015C10.5325 8.50015 10.5327 8.50015 10.5329 8.50015C10.5331 8.50015 10.5333 8.50015 10.5335 8.50015C10.5337 8.50015 10.5339 8.50015 10.5341 8.50015C10.5343 8.50015 10.5345 8.50015 10.5347 8.50015C10.5349 8.50015 10.5351 8.50015 10.5353 8.50015C10.5355 8.50015 10.5358 8.50015 10.536 8.50015C10.5362 8.50015 10.5364 8.50015 10.5366 8.50015C10.5368 8.50015 10.537 8.50015 10.5373 8.50015C10.5375 8.50015 10.5377 8.50015 10.5379 8.50015C10.5381 8.50015 10.5384 8.50015 10.5386 8.50015C10.5388 8.50015 10.539 8.50015 10.5393 8.50015C10.5395 8.50015 10.5397 8.50015 10.5399 8.50015C10.5402 8.50015 10.5404 8.50015 10.5406 8.50015C10.5409 8.50015 10.5411 8.50015 10.5413 8.50015C10.5415 8.50015 10.5418 8.50015 10.542 8.50015C10.5423 8.50015 10.5425 8.50015 10.5427 8.50015C10.543 8.50015 10.5432 8.50015 10.5435 8.50015C10.5437 8.50015 10.5439 8.50015 10.5442 8.50015C10.5444 8.50015 10.5447 8.50015 10.5449 8.50015C10.5452 8.50015 10.5454 8.50015 10.5457 8.50015C10.5459 8.50015 10.5462 8.50015 10.5464 8.50015C10.5467 8.50015 10.5469 8.50015 10.5472 8.50015C10.5474 8.50015 10.5477 8.50015 10.5479 8.50015C10.5482 8.50015 10.5485 8.50015 10.5487 8.50015C10.549 8.50015 10.5492 8.50015 10.5495 8.50015C10.5498 8.50015 10.55 8.50015 10.5503 8.50015C10.5506 8.50015 10.5508 8.50015 10.5511 8.50015C10.5514 8.50015 10.5516 8.50015 10.5519 8.50015C10.5522 8.50015 10.5525 8.50015 10.5527 8.50015C10.553 8.50015 10.5533 8.50015 10.5536 8.50015C10.5538 8.50015 10.5541 8.50015 10.5544 8.50015C10.5547 8.50015 10.555 8.50015 10.5552 8.50015C10.5555 8.50015 10.5558 8.50015 10.5561 8.50015C10.5564 8.50015 10.5567 8.50015 10.557 8.50015C10.5573 8.50015 10.5575 8.50015 10.5578 8.50015C10.5581 8.50015 10.5584 8.50015 10.5587 8.50015C10.559 8.50015 10.5593 8.50015 10.5596 8.50015C10.5599 8.50015 10.5602 8.50015 10.5605 8.50015C10.5608 8.50015 10.5611 8.50015 10.5614 8.50015C10.5617 8.50015 10.562 8.50015 10.5623 8.50015C10.5626 8.50015 10.5629 8.50015 10.5633 8.50015C10.5636 8.50015 10.5639 8.50015 10.5642 8.50015C10.5645 8.50015 10.5648 8.50015 10.5651 8.50015C10.5654 8.50015 10.5658 8.50015 10.5661 8.50015C10.5664 8.50015 10.5667 8.50015 10.567 8.50015C10.5674 8.50015 10.5677 8.50015 10.568 8.50015C10.5683 8.50015 10.5687 8.50015 10.569 8.50015C10.5693 8.50015 10.5697 8.50015 10.57 8.50015C10.5703 8.50015 10.5707 8.50015 10.571 8.50015C10.5713 8.50015 10.5717 8.50015 10.572 8.50015C10.5723 8.50015 10.5727 8.50015 10.573 8.50015C10.5734 8.50015 10.5737 8.50015 10.574 8.50015C10.5744 8.50015 10.5747 8.50015 10.5751 8.50015C10.5754 8.50015 10.5758 8.50015 10.5761 8.50015C10.5765 8.50015 10.5768 8.50015 10.5772 8.50015C10.5775 8.50015 10.5779 8.50015 10.5783 8.50015C10.5786 8.50015 10.579 8.50015 10.5793 8.50015C10.5797 8.50015 10.5801 8.50015 10.5804 8.50015C10.5808 8.50015 10.5812 8.50015 10.5815 8.50015C10.5819 8.50015 10.5823 8.50015 10.5826 8.50015C10.583 8.50015 10.5834 8.50015 10.5837 8.50015C10.5841 8.50015 10.5845 8.50015 10.5849 8.50015C10.5852 8.50015 10.5856 8.50015 10.586 8.50015C10.5864 8.50015 10.5868 8.50015 10.5872 8.50015C10.5875 8.50015 10.5879 8.50015 10.5883 8.50015C10.5887 8.50015 10.5891 8.50015 10.5895 8.50015C10.5899 8.50015 10.5903 8.50015 10.5907 8.50015C10.591 8.50015 10.5914 8.50015 10.5918 8.50015C10.5922 8.50015 10.5926 8.50015 10.593 8.50015C10.5934 8.50015 10.5938 8.50015 10.5942 8.50015C10.5947 8.50015 10.5951 8.50015 10.5955 8.50015C10.5959 8.50015 10.5963 8.50015 10.5967 8.50015C10.5971 8.50015 10.5975 8.50015 10.5979 8.50015C10.5983 8.50015 10.5988 8.50015 10.5992 8.50015C10.5996 8.50015 10.6 8.50015 10.6004 8.50015C10.6009 8.50015 10.6013 8.50015 10.6017 8.50015C10.6021 8.50015 10.6026 8.50015 10.603 8.50015C10.6034 8.50015 10.6039 8.50015 10.6043 8.50015C10.6047 8.50015 10.6052 8.50015 10.6056 8.50015C10.606 8.50015 10.6065 8.50015 10.6069 8.50015C10.6073 8.50015 10.6078 8.50015 10.6082 8.50015C10.6087 8.50015 10.6091 8.50015 10.6096 8.50015C10.61 8.50015 10.6105 8.50015 10.6109 8.50015C10.6114 8.50015 10.6118 8.50015 10.6123 8.50015C10.6127 8.50015 10.6132 8.50015 10.6136 8.50015C10.6141 8.50015 10.6146 8.50015 10.615 8.50015C10.6155 8.50015 10.616 8.50015 10.6164 8.50015C10.6169 8.50015 10.6173 8.50015 10.6178 8.50015C10.6183 8.50015 10.6188 8.50015 10.6192 8.50015C10.6197 8.50015 10.6202 8.50015 10.6207 8.50015C10.6211 8.50015 10.6216 8.50015 10.6221 8.50015C10.6226 8.50015 10.6231 8.50015 10.6235 8.50015C10.624 8.50015 10.6245 8.50015 10.625 8.50015C10.6255 8.50015 10.626 8.50015 10.6265 8.50015C10.627 8.50015 10.6275 8.50015 10.628 8.50015C10.6284 8.50015 10.6289 8.50015 10.6294 8.50015C10.6299 8.50015 10.6304 8.50015 10.631 8.50015C10.6315 8.50015 10.632 8.50015 10.6325 8.50015C10.633 8.50015 10.6335 8.50015 10.634 8.50015C10.6345 8.50015 10.635 8.50015 10.6355 8.50015C10.6361 8.50015 10.6366 8.50015 10.6371 8.50015C10.6376 8.50015 10.6381 8.50015 10.6387 8.50015C10.6392 8.50015 10.6397 8.50015 10.6402 8.50015C10.6408 8.50015 10.6413 8.50015 10.6418 8.50015C10.6423 8.50015 10.6429 8.50015 10.6434 8.50015C10.644 8.50015 10.6445 8.50015 10.645 8.50015C10.6456 8.50015 10.6461 8.50015 10.6467 8.50015C10.6472 8.50015 10.6477 8.50015 10.6483 8.50015C10.6488 8.50015 10.6494 8.50015 10.6499 8.50015C10.6505 8.50015 10.651 8.50015 10.6516 8.50015C10.6521 8.50015 10.6527 8.50015 10.6533 8.50015C10.6538 8.50015 10.6544 8.50015 10.6549 8.50015C10.6555 8.50015 10.6561 8.50015 10.6566 8.50015C10.6572 8.50015 10.6578 8.50015 10.6584 8.50015C10.6589 8.50015 10.6595 8.50015 10.6601 8.50015C10.6607 8.50015 10.6612 8.50015 10.6618 8.50015C10.6624 8.50015 10.663 8.50015 10.6636 8.50015C10.6641 8.50015 10.6647 8.50015 10.6653 8.50015C10.6659 8.50015 10.6665 8.50015 10.6671 8.50015C10.6677 8.50015 10.6683 8.50015 10.6689 8.50015C10.6695 8.50015 10.6701 8.50015 10.6707 8.50015C10.6713 8.50015 10.6719 8.50015 10.6725 8.50015C10.6731 8.50015 10.6737 8.50015 10.6743 8.50015C10.6749 8.50015 10.6755 8.50015 10.6761 8.50015C10.6767 8.50015 10.6774 8.50015 10.678 8.50015C10.6786 8.50015 10.6792 8.50015 10.6798 8.50015C10.6805 8.50015 10.6811 8.50015 10.6817 8.50015C10.6823 8.50015 10.683 8.50015 10.6836 8.50015C10.6842 8.50015 10.6849 8.50015 10.6855 8.50015C10.6861 8.50015 10.6868 8.50015 10.6874 8.50015C10.6881 8.50015 10.6887 8.50015 10.6893 8.50015C10.69 8.50015 10.6906 8.50015 10.6913 8.50015C10.6919 8.50015 10.6926 8.50015 10.6932 8.50015C10.6939 8.50015 10.6945 8.50015 10.6952 8.50015C10.6958 8.50015 10.6965 8.50015 10.6972 8.50015C10.6978 8.50015 10.6985 8.50015 10.6992 8.50015C10.6998 8.50015 10.7005 8.50015 10.7012 8.50015C10.7018 8.50015 10.7025 8.50015 10.7032 8.50015C10.7039 8.50015 10.7045 8.50015 10.7052 8.50015C10.7059 8.50015 10.7066 8.50015 10.7073 8.50015C10.7079 8.50015 10.7086 8.50015 10.7093 8.50015C10.71 8.50015 10.7107 8.50015 10.7114 8.50015C10.7121 8.50015 10.7128 8.50015 10.7135 8.50015C10.7142 8.50015 10.7149 8.50015 10.7156 8.50015C10.7163 8.50015 10.717 8.50015 10.7177 8.50015C10.7184 8.50015 10.7191 8.50015 10.7198 8.50015C10.7205 8.50015 10.7212 8.50015 10.722 8.50015C10.7227 8.50015 10.7234 8.50015 10.7241 8.50015C10.7248 8.50015 10.7256 8.50015 10.7263 8.50015C10.727 8.50015 10.7277 8.50015 10.7285 8.50015C10.7292 8.50015 10.7299 8.50015 10.7307 8.50015C10.7314 8.50015 10.7321 8.50015 10.7329 8.50015C10.7336 8.50015 10.7344 8.50015 10.7351 8.50015C10.7358 8.50015 10.7366 8.50015 10.7373 8.50015C10.7381 8.50015 10.7388 8.50015 10.7396 8.50015C10.7403 8.50015 10.7411 8.50015 10.7419 8.50015C10.7426 8.50015 10.7434 8.50015 10.7441 8.50015C10.7449 8.50015 10.7457 8.50015 10.7464 8.50015C10.7472 8.50015 10.748 8.50015 10.7487 8.50015C10.7495 8.50015 10.7503 8.50015 10.7511 8.50015C10.7518 8.50015 10.7526 8.50015 10.7534 8.50015C10.7542 8.50015 10.755 8.50015 10.7558 8.50015C10.7566 8.50015 10.7573 8.50015 10.7581 8.50015C10.7589 8.50015 10.7597 8.50015 10.7605 8.50015C10.7613 8.50015 10.7621 8.50015 10.7629 8.50015C10.7637 8.50015 10.7645 8.50015 10.7653 8.50015C10.7661 8.50015 10.7669 8.50015 10.7678 8.50015C10.7686 8.50015 10.7694 8.50015 10.7702 8.50015C10.771 8.50015 10.7718 8.50015 10.7726 8.50015C10.7735 8.50015 10.7743 8.50015 10.7751 8.50015C10.7759 8.50015 10.7768 8.50015 10.7776 8.50015C10.7784 8.50015 10.7793 8.50015 10.7801 8.50015C10.7809 8.50015 10.7818 8.50015 10.7826 8.50015C10.7835 8.50015 10.7843 8.50015 10.7852 8.50015C10.786 8.50015 10.7868 8.50015 10.7877 8.50015C10.7886 8.50015 10.7894 8.50015 10.7903 8.50015C10.7911 8.50015 10.792 8.50015 10.7928 8.50015C10.7937 8.50015 10.7946 8.50015 10.7954 8.50015C10.7963 8.50015 10.7972 8.50015 10.798 8.50015C10.7989 8.50015 10.7998 8.50015 10.8007 8.50015C10.8015 8.50015 10.8024 8.50015 10.8033 8.50015C10.8042 8.50015 10.8051 8.50015 10.8059 8.50015C10.8068 8.50015 10.8077 8.50015 10.8086 8.50015C10.8095 8.50015 10.8104 8.50015 10.8113 8.50015C10.8122 8.50015 10.8131 8.50015 10.814 8.50015C10.8149 8.50015 10.8158 8.50015 10.8167 8.50015C10.8176 8.50015 10.8185 8.50015 10.8194 8.50015C10.8204 8.50015 10.8213 8.50015 10.8222 8.50015C10.8231 8.50015 10.824 8.50015 10.825 8.50015C10.8259 8.50015 10.8268 8.50015 10.8277 8.50015C10.8287 8.50015 10.8296 8.50015 10.8305 8.50015C10.8315 8.50015 10.8324 8.50015 10.8333 8.50015C10.8343 8.50015 10.8352 8.50015 10.8362 8.50015C10.8371 8.50015 10.838 8.50015 10.839 8.50015C10.8399 8.50015 10.8409 8.50015 10.8419 8.50015C10.8428 8.50015 10.8438 8.50015 10.8447 8.50015C10.8457 8.50015 10.8466 8.50015 10.8476 8.50015C10.8486 8.50015 10.8495 8.50015 10.8505 8.50015C10.8515 8.50015 10.8525 8.50015 10.8534 8.50015C10.8544 8.50015 10.8554 8.50015 10.8564 8.50015C10.8574 8.50015 10.8583 8.50015 10.8593 8.50015C10.8603 8.50015 10.8613 8.50015 10.8623 8.50015C10.8633 8.50015 10.8643 8.50015 10.8653 8.50015C10.8663 8.50015 10.8673 8.50015 10.8683 8.50015C10.8693 8.50015 10.8703 8.50015 10.8713 8.50015C10.8723 8.50015 10.8733 8.50015 10.8743 8.50015C10.8754 8.50015 10.8764 8.50015 10.8774 8.50015C10.8784 8.50015 10.8794 8.50015 10.8805 8.50015C10.8815 8.50015 10.8825 8.50015 10.8835 8.50015C10.8846 8.50015 10.8856 8.50015 10.8866 8.50015C10.8877 8.50015 10.8887 8.50015 10.8898 8.50015C10.8908 8.50015 10.8919 8.50015 10.8929 8.50015C10.894 8.50015 10.895 8.50015 10.8961 8.50015C10.8971 8.50015 10.8982 8.50015 10.8992 8.50015C10.9003 8.50015 10.9013 8.50015 10.9024 8.50015C10.9035 8.50015 10.9045 8.50015 10.9056 8.50015C10.9067 8.50015 10.9078 8.50015 10.9088 8.50015C10.9099 8.50015 10.911 8.50015 10.9121 8.50015C10.9131 8.50015 10.9142 8.50015 10.9153 8.50015C10.9164 8.50015 10.9175 8.50015 10.9186 8.50015C10.9197 8.50015 10.9208 8.50015 10.9219 8.50015C10.923 8.50015 10.9241 8.50015 10.9252 8.50015C10.9263 8.50015 10.9274 8.50015 10.9285 8.50015C10.9296 8.50015 10.9307 8.50015 10.9318 8.50015C10.933 8.50015 10.9341 8.50015 10.9352 8.50015C10.9363 8.50015 10.9374 8.50015 10.9386 8.50015C10.9397 8.50015 10.9408 8.50015 10.942 8.50015C10.9431 8.50015 10.9442 8.50015 10.9454 8.50015C10.9465 8.50015 10.9477 8.50015 10.9488 8.50015C10.9499 8.50015 10.9511 8.50015 10.9522 8.50015C10.9534 8.50015 10.9545 8.50015 10.9557 8.50015C10.9569 8.50015 10.958 8.50015 10.9592 8.50015C10.9603 8.50015 10.9615 8.50015 10.9627 8.50015C10.9638 8.50015 10.965 8.50015 10.9662 8.50015C10.9674 8.50015 10.9685 8.50015 10.9697 8.50015C10.9709 8.50015 10.9721 8.50015 10.9733 8.50015C10.9745 8.50015 10.9756 8.50015 10.9768 8.50015C10.978 8.50015 10.9792 8.50015 10.9804 8.50015C10.9816 8.50015 10.9828 8.50015 10.984 8.50015C10.9852 8.50015 10.9864 8.50015 10.9876 8.50015C10.9889 8.50015 10.9901 8.50015 10.9913 8.50015C10.9925 8.50015 10.9937 8.50015 10.9949 8.50015C10.9962 8.50015 10.9974 8.50015 10.9986 8.50015C10.9998 8.50015 11.0011 8.50015 11.0023 8.50015C11.0035 8.50015 11.0048 8.50015 11.006 8.50015C11.0073 8.50015 11.0085 8.50015 11.0098 8.50015C11.011 8.50015 11.0122 8.50015 11.0135 8.50015C11.0148 8.50015 11.016 8.50015 11.0173 8.50015C11.0185 8.50015 11.0198 8.50015 11.0211 8.50015C11.0223 8.50015 11.0236 8.50015 11.0249 8.50015C11.0261 8.50015 11.0274 8.50015 11.0287 8.50015C11.03 8.50015 11.0312 8.50015 11.0325 8.50015C11.0338 8.50015 11.0351 8.50015 11.0364 8.50015C11.0377 8.50015 11.039 8.50015 11.0403 8.50015C11.0416 8.50015 11.0428 8.50015 11.0442 8.50015C11.0455 8.50015 11.0468 8.50015 11.0481 8.50015C11.0494 8.50015 11.0507 8.50015 11.052 8.50015C11.0533 8.50015 11.0546 8.50015 11.056 8.50015C11.0573 8.50015 11.0586 8.50015 11.0599 8.50015C11.0612 8.50015 11.0626 8.50015 11.0639 8.50015C11.0652 8.50015 11.0666 8.50015 11.0679 8.50015C11.0693 8.50015 11.0706 8.50015 11.0719 8.50015C11.0733 8.50015 11.0746 8.50015 11.076 8.50015C11.0773 8.50015 11.0787 8.50015 11.0801 8.50015C11.0814 8.50015 11.0828 8.50015 11.0841 8.50015C11.0855 8.50015 11.0869 8.50015 11.0883 8.50015C11.0896 8.50015 11.091 8.50015 11.0924 8.50015C11.0938 8.50015 11.0951 8.50015 11.0965 8.50015C11.0979 8.50015 11.0993 8.50015 11.1007 8.50015C11.1021 8.50015 11.1035 8.50015 11.1049 8.50015C11.1063 8.50015 11.1077 8.50015 11.1091 8.50015C11.1105 8.50015 11.1119 8.50015 11.1133 8.50015C11.1147 8.50015 11.1161 8.50015 11.1175 8.50015C11.1189 8.50015 11.1204 8.50015 11.1218 8.50015C11.1232 8.50015 11.1246 8.50015 11.1261 8.50015C11.1275 8.50015 11.1289 8.50015 11.1304 8.50015C11.1318 8.50015 11.1332 8.50015 11.1347 8.50015C11.1361 8.50015 11.1376 8.50015 11.139 8.50015C11.1405 8.50015 11.1419 8.50015 11.1434 8.50015C11.1448 8.50015 11.1463 8.50015 11.1477 8.50015C11.1492 8.50015 11.1507 8.50015 11.1521 8.50015C11.1536 8.50015 11.1551 8.50015 11.1566 8.50015C11.158 8.50015 11.1595 8.50015 11.161 8.50015C11.1625 8.50015 11.164 8.50015 11.1654 8.50015C11.1669 8.50015 11.1684 8.50015 11.1699 8.50015C11.1714 8.50015 11.1729 8.50015 11.1744 8.50015C11.1759 8.50015 11.1774 8.50015 11.1789 8.50015C11.1804 8.50015 11.182 8.50015 11.1835 8.50015C11.185 8.50015 11.1865 8.50015 11.188 8.50015C11.1895 8.50015 11.1911 8.50015 11.1926 8.50015C11.1941 8.50015 11.1957 8.50015 11.1972 8.50015C11.1987 8.50015 11.2003 8.50015 11.2018 8.50015C11.2034 8.50015 11.2049 8.50015 11.2065 8.50015C11.208 8.50015 11.2096 8.50015 11.2111 8.50015C11.2127 8.50015 11.2142 8.50015 11.2158 8.50015C11.2174 8.50015 11.2189 8.50015 11.2205 8.50015C11.2221 8.50015 11.2236 8.50015 11.2252 8.50015C11.2268 8.50015 11.2284 8.50015 11.23 8.50015C11.2315 8.50015 11.2331 8.50015 11.2347 8.50015C11.2363 8.50015 11.2379 8.50015 11.2395 8.50015C11.2411 8.50015 11.2427 8.50015 11.2443 8.50015C11.2459 8.50015 11.2475 8.50015 11.2491 8.50015C11.2507 8.50015 11.2523 8.50015 11.254 8.50015C11.2556 8.50015 11.2572 8.50015 11.2588 8.50015C11.2604 8.50015 11.2621 8.50015 11.2637 8.50015C11.2653 8.50015 11.267 8.50015 11.2686 8.50015C11.2703 8.50015 11.2719 8.50015 11.2735 8.50015C11.2752 8.50015 11.2768 8.50015 11.2785 8.50015C11.2801 8.50015 11.2818 8.50015 11.2835 8.50015C11.2851 8.50015 11.2868 8.50015 11.2884 8.50015C11.2901 8.50015 11.2918 8.50015 11.2935 8.50015C11.2951 8.50015 11.2968 8.50015 11.2985 8.50015C11.3002 8.50015 11.3019 8.50015 11.3035 8.50015C11.3052 8.50015 11.3069 8.50015 11.3086 8.50015C11.3103 8.50015 11.312 8.50015 11.3137 8.50015C11.3154 8.50015 11.3171 8.50015 11.3188 8.50015C11.3205 8.50015 11.3223 8.50015 11.324 8.50015C11.3257 8.50015 11.3274 8.50015 11.3291 8.50015C11.3309 8.50015 11.3326 8.50015 11.3343 8.50015C11.336 8.50015 11.3378 8.50015 11.3395 8.50015C11.3413 8.50015 11.343 8.50015 11.3447 8.50015C11.3465 8.50015 11.3482 8.50015 11.35 8.50015C11.3517 8.50015 11.3535 8.50015 11.3553 8.50015C11.357 8.50015 11.3588 8.50015 11.3606 8.50015C11.3623 8.50015 11.3641 8.50015 11.3659 8.50015C11.3676 8.50015 11.3694 8.50015 11.3712 8.50015C11.373 8.50015 11.3748 8.50015 11.3766 8.50015C11.3783 8.50015 11.3801 8.50015 11.3819 8.50015C11.3837 8.50015 11.3855 8.50015 11.3873 8.50015C11.3891 8.50015 11.3909 8.50015 11.3928 8.50015C11.3946 8.50015 11.3964 8.50015 11.3982 8.50015C11.4 8.50015 11.4018 8.50015 11.4037 8.50015C11.4055 8.50015 11.4073 8.50015 11.4091 8.50015C11.411 8.50015 11.4128 8.50015 11.4147 8.50015C11.4165 8.50015 11.4183 8.50015 11.4202 8.50015C11.422 8.50015 11.4239 8.50015 11.4257 8.50015C11.4276 8.50015 11.4295 8.50015 11.4313 8.50015C11.4332 8.50015 11.4351 8.50015 11.4369 8.50015C11.4388 8.50015 11.4407 8.50015 11.4425 8.50015C11.4444 8.50015 11.4463 8.50015 11.4482 8.50015C11.4501 8.50015 11.452 8.50015 11.4539 8.50015C11.4557 8.50015 11.4576 8.50015 11.4595 8.50015C11.4614 8.50015 11.4633 8.50015 11.4653 8.50015C11.4672 8.50015 11.4691 8.50015 11.471 8.50015C11.4729 8.50015 11.4748 8.50015 11.4767 8.50015C11.4787 8.50015 11.4806 8.50015 11.4825 8.50015C11.4845 8.50015 11.4864 8.50015 11.4883 8.50015C11.4903 8.50015 11.4922 8.50015 11.4942 8.50015C11.4961 8.50015 11.498 8.50015 11.5 8.50015V8.00015V7.50015C11.498 7.50015 11.4961 7.50015 11.4942 7.50015C11.4922 7.50015 11.4903 7.50015 11.4883 7.50015C11.4864 7.50015 11.4845 7.50015 11.4825 7.50015C11.4806 7.50015 11.4787 7.50015 11.4767 7.50015C11.4748 7.50015 11.4729 7.50015 11.471 7.50015C11.4691 7.50015 11.4672 7.50015 11.4653 7.50015C11.4633 7.50015 11.4614 7.50015 11.4595 7.50015C11.4576 7.50015 11.4557 7.50015 11.4539 7.50015C11.452 7.50015 11.4501 7.50015 11.4482 7.50015C11.4463 7.50015 11.4444 7.50015 11.4425 7.50015C11.4407 7.50015 11.4388 7.50015 11.4369 7.50015C11.4351 7.50015 11.4332 7.50015 11.4313 7.50015C11.4295 7.50015 11.4276 7.50015 11.4257 7.50015C11.4239 7.50015 11.422 7.50015 11.4202 7.50015C11.4183 7.50015 11.4165 7.50015 11.4147 7.50015C11.4128 7.50015 11.411 7.50015 11.4091 7.50015C11.4073 7.50015 11.4055 7.50015 11.4037 7.50015C11.4018 7.50015 11.4 7.50015 11.3982 7.50015C11.3964 7.50015 11.3946 7.50015 11.3928 7.50015C11.3909 7.50015 11.3891 7.50015 11.3873 7.50015C11.3855 7.50015 11.3837 7.50015 11.3819 7.50015C11.3801 7.50015 11.3783 7.50015 11.3766 7.50015C11.3748 7.50015 11.373 7.50015 11.3712 7.50015C11.3694 7.50015 11.3676 7.50015 11.3659 7.50015C11.3641 7.50015 11.3623 7.50015 11.3606 7.50015C11.3588 7.50015 11.357 7.50015 11.3553 7.50015C11.3535 7.50015 11.3517 7.50015 11.35 7.50015C11.3482 7.50015 11.3465 7.50015 11.3447 7.50015C11.343 7.50015 11.3413 7.50015 11.3395 7.50015C11.3378 7.50015 11.336 7.50015 11.3343 7.50015C11.3326 7.50015 11.3309 7.50015 11.3291 7.50015C11.3274 7.50015 11.3257 7.50015 11.324 7.50015C11.3223 7.50015 11.3205 7.50015 11.3188 7.50015C11.3171 7.50015 11.3154 7.50015 11.3137 7.50015C11.312 7.50015 11.3103 7.50015 11.3086 7.50015C11.3069 7.50015 11.3052 7.50015 11.3035 7.50015C11.3019 7.50015 11.3002 7.50015 11.2985 7.50015C11.2968 7.50015 11.2951 7.50015 11.2935 7.50015C11.2918 7.50015 11.2901 7.50015 11.2884 7.50015C11.2868 7.50015 11.2851 7.50015 11.2835 7.50015C11.2818 7.50015 11.2801 7.50015 11.2785 7.50015C11.2768 7.50015 11.2752 7.50015 11.2735 7.50015C11.2719 7.50015 11.2703 7.50015 11.2686 7.50015C11.267 7.50015 11.2653 7.50015 11.2637 7.50015C11.2621 7.50015 11.2604 7.50015 11.2588 7.50015C11.2572 7.50015 11.2556 7.50015 11.254 7.50015C11.2523 7.50015 11.2507 7.50015 11.2491 7.50015C11.2475 7.50015 11.2459 7.50015 11.2443 7.50015C11.2427 7.50015 11.2411 7.50015 11.2395 7.50015C11.2379 7.50015 11.2363 7.50015 11.2347 7.50015C11.2331 7.50015 11.2315 7.50015 11.23 7.50015C11.2284 7.50015 11.2268 7.50015 11.2252 7.50015C11.2236 7.50015 11.2221 7.50015 11.2205 7.50015C11.2189 7.50015 11.2174 7.50015 11.2158 7.50015C11.2142 7.50015 11.2127 7.50015 11.2111 7.50015C11.2096 7.50015 11.208 7.50015 11.2065 7.50015C11.2049 7.50015 11.2034 7.50015 11.2018 7.50015C11.2003 7.50015 11.1987 7.50015 11.1972 7.50015C11.1957 7.50015 11.1941 7.50015 11.1926 7.50015C11.1911 7.50015 11.1895 7.50015 11.188 7.50015C11.1865 7.50015 11.185 7.50015 11.1835 7.50015C11.182 7.50015 11.1804 7.50015 11.1789 7.50015C11.1774 7.50015 11.1759 7.50015 11.1744 7.50015C11.1729 7.50015 11.1714 7.50015 11.1699 7.50015C11.1684 7.50015 11.1669 7.50015 11.1654 7.50015C11.164 7.50015 11.1625 7.50015 11.161 7.50015C11.1595 7.50015 11.158 7.50015 11.1566 7.50015C11.1551 7.50015 11.1536 7.50015 11.1521 7.50015C11.1507 7.50015 11.1492 7.50015 11.1477 7.50015C11.1463 7.50015 11.1448 7.50015 11.1434 7.50015C11.1419 7.50015 11.1405 7.50015 11.139 7.50015C11.1376 7.50015 11.1361 7.50015 11.1347 7.50015C11.1332 7.50015 11.1318 7.50015 11.1304 7.50015C11.1289 7.50015 11.1275 7.50015 11.1261 7.50015C11.1246 7.50015 11.1232 7.50015 11.1218 7.50015C11.1204 7.50015 11.1189 7.50015 11.1175 7.50015C11.1161 7.50015 11.1147 7.50015 11.1133 7.50015C11.1119 7.50015 11.1105 7.50015 11.1091 7.50015C11.1077 7.50015 11.1063 7.50015 11.1049 7.50015C11.1035 7.50015 11.1021 7.50015 11.1007 7.50015C11.0993 7.50015 11.0979 7.50015 11.0965 7.50015C11.0951 7.50015 11.0938 7.50015 11.0924 7.50015C11.091 7.50015 11.0896 7.50015 11.0883 7.50015C11.0869 7.50015 11.0855 7.50015 11.0841 7.50015C11.0828 7.50015 11.0814 7.50015 11.0801 7.50015C11.0787 7.50015 11.0773 7.50015 11.076 7.50015C11.0746 7.50015 11.0733 7.50015 11.0719 7.50015C11.0706 7.50015 11.0693 7.50015 11.0679 7.50015C11.0666 7.50015 11.0652 7.50015 11.0639 7.50015C11.0626 7.50015 11.0612 7.50015 11.0599 7.50015C11.0586 7.50015 11.0573 7.50015 11.056 7.50015C11.0546 7.50015 11.0533 7.50015 11.052 7.50015C11.0507 7.50015 11.0494 7.50015 11.0481 7.50015C11.0468 7.50015 11.0455 7.50015 11.0442 7.50015C11.0428 7.50015 11.0416 7.50015 11.0403 7.50015C11.039 7.50015 11.0377 7.50015 11.0364 7.50015C11.0351 7.50015 11.0338 7.50015 11.0325 7.50015C11.0312 7.50015 11.03 7.50015 11.0287 7.50015C11.0274 7.50015 11.0261 7.50015 11.0249 7.50015C11.0236 7.50015 11.0223 7.50015 11.0211 7.50015C11.0198 7.50015 11.0185 7.50015 11.0173 7.50015C11.016 7.50015 11.0148 7.50015 11.0135 7.50015C11.0122 7.50015 11.011 7.50015 11.0098 7.50015C11.0085 7.50015 11.0073 7.50015 11.006 7.50015C11.0048 7.50015 11.0035 7.50015 11.0023 7.50015C11.0011 7.50015 10.9998 7.50015 10.9986 7.50015C10.9974 7.50015 10.9962 7.50015 10.9949 7.50015C10.9937 7.50015 10.9925 7.50015 10.9913 7.50015C10.9901 7.50015 10.9889 7.50015 10.9876 7.50015C10.9864 7.50015 10.9852 7.50015 10.984 7.50015C10.9828 7.50015 10.9816 7.50015 10.9804 7.50015C10.9792 7.50015 10.978 7.50015 10.9768 7.50015C10.9756 7.50015 10.9745 7.50015 10.9733 7.50015C10.9721 7.50015 10.9709 7.50015 10.9697 7.50015C10.9685 7.50015 10.9674 7.50015 10.9662 7.50015C10.965 7.50015 10.9638 7.50015 10.9627 7.50015C10.9615 7.50015 10.9603 7.50015 10.9592 7.50015C10.958 7.50015 10.9569 7.50015 10.9557 7.50015C10.9545 7.50015 10.9534 7.50015 10.9522 7.50015C10.9511 7.50015 10.9499 7.50015 10.9488 7.50015C10.9477 7.50015 10.9465 7.50015 10.9454 7.50015C10.9442 7.50015 10.9431 7.50015 10.942 7.50015C10.9408 7.50015 10.9397 7.50015 10.9386 7.50015C10.9374 7.50015 10.9363 7.50015 10.9352 7.50015C10.9341 7.50015 10.933 7.50015 10.9318 7.50015C10.9307 7.50015 10.9296 7.50015 10.9285 7.50015C10.9274 7.50015 10.9263 7.50015 10.9252 7.50015C10.9241 7.50015 10.923 7.50015 10.9219 7.50015C10.9208 7.50015 10.9197 7.50015 10.9186 7.50015C10.9175 7.50015 10.9164 7.50015 10.9153 7.50015C10.9142 7.50015 10.9131 7.50015 10.9121 7.50015C10.911 7.50015 10.9099 7.50015 10.9088 7.50015C10.9078 7.50015 10.9067 7.50015 10.9056 7.50015C10.9045 7.50015 10.9035 7.50015 10.9024 7.50015C10.9013 7.50015 10.9003 7.50015 10.8992 7.50015C10.8982 7.50015 10.8971 7.50015 10.8961 7.50015C10.895 7.50015 10.894 7.50015 10.8929 7.50015C10.8919 7.50015 10.8908 7.50015 10.8898 7.50015C10.8887 7.50015 10.8877 7.50015 10.8866 7.50015C10.8856 7.50015 10.8846 7.50015 10.8835 7.50015C10.8825 7.50015 10.8815 7.50015 10.8805 7.50015C10.8794 7.50015 10.8784 7.50015 10.8774 7.50015C10.8764 7.50015 10.8754 7.50015 10.8743 7.50015C10.8733 7.50015 10.8723 7.50015 10.8713 7.50015C10.8703 7.50015 10.8693 7.50015 10.8683 7.50015C10.8673 7.50015 10.8663 7.50015 10.8653 7.50015C10.8643 7.50015 10.8633 7.50015 10.8623 7.50015C10.8613 7.50015 10.8603 7.50015 10.8593 7.50015C10.8583 7.50015 10.8574 7.50015 10.8564 7.50015C10.8554 7.50015 10.8544 7.50015 10.8534 7.50015C10.8525 7.50015 10.8515 7.50015 10.8505 7.50015C10.8495 7.50015 10.8486 7.50015 10.8476 7.50015C10.8466 7.50015 10.8457 7.50015 10.8447 7.50015C10.8438 7.50015 10.8428 7.50015 10.8419 7.50015C10.8409 7.50015 10.8399 7.50015 10.839 7.50015C10.838 7.50015 10.8371 7.50015 10.8362 7.50015C10.8352 7.50015 10.8343 7.50015 10.8333 7.50015C10.8324 7.50015 10.8315 7.50015 10.8305 7.50015C10.8296 7.50015 10.8287 7.50015 10.8277 7.50015C10.8268 7.50015 10.8259 7.50015 10.825 7.50015C10.824 7.50015 10.8231 7.50015 10.8222 7.50015C10.8213 7.50015 10.8204 7.50015 10.8194 7.50015C10.8185 7.50015 10.8176 7.50015 10.8167 7.50015C10.8158 7.50015 10.8149 7.50015 10.814 7.50015C10.8131 7.50015 10.8122 7.50015 10.8113 7.50015C10.8104 7.50015 10.8095 7.50015 10.8086 7.50015C10.8077 7.50015 10.8068 7.50015 10.8059 7.50015C10.8051 7.50015 10.8042 7.50015 10.8033 7.50015C10.8024 7.50015 10.8015 7.50015 10.8007 7.50015C10.7998 7.50015 10.7989 7.50015 10.798 7.50015C10.7972 7.50015 10.7963 7.50015 10.7954 7.50015C10.7946 7.50015 10.7937 7.50015 10.7928 7.50015C10.792 7.50015 10.7911 7.50015 10.7903 7.50015C10.7894 7.50015 10.7886 7.50015 10.7877 7.50015C10.7868 7.50015 10.786 7.50015 10.7852 7.50015C10.7843 7.50015 10.7835 7.50015 10.7826 7.50015C10.7818 7.50015 10.7809 7.50015 10.7801 7.50015C10.7793 7.50015 10.7784 7.50015 10.7776 7.50015C10.7768 7.50015 10.7759 7.50015 10.7751 7.50015C10.7743 7.50015 10.7735 7.50015 10.7726 7.50015C10.7718 7.50015 10.771 7.50015 10.7702 7.50015C10.7694 7.50015 10.7686 7.50015 10.7678 7.50015C10.7669 7.50015 10.7661 7.50015 10.7653 7.50015C10.7645 7.50015 10.7637 7.50015 10.7629 7.50015C10.7621 7.50015 10.7613 7.50015 10.7605 7.50015C10.7597 7.50015 10.7589 7.50015 10.7581 7.50015C10.7573 7.50015 10.7566 7.50015 10.7558 7.50015C10.755 7.50015 10.7542 7.50015 10.7534 7.50015C10.7526 7.50015 10.7518 7.50015 10.7511 7.50015C10.7503 7.50015 10.7495 7.50015 10.7487 7.50015C10.748 7.50015 10.7472 7.50015 10.7464 7.50015C10.7457 7.50015 10.7449 7.50015 10.7441 7.50015C10.7434 7.50015 10.7426 7.50015 10.7419 7.50015C10.7411 7.50015 10.7403 7.50015 10.7396 7.50015C10.7388 7.50015 10.7381 7.50015 10.7373 7.50015C10.7366 7.50015 10.7358 7.50015 10.7351 7.50015C10.7344 7.50015 10.7336 7.50015 10.7329 7.50015C10.7321 7.50015 10.7314 7.50015 10.7307 7.50015C10.7299 7.50015 10.7292 7.50015 10.7285 7.50015C10.7277 7.50015 10.727 7.50015 10.7263 7.50015C10.7256 7.50015 10.7248 7.50015 10.7241 7.50015C10.7234 7.50015 10.7227 7.50015 10.722 7.50015C10.7212 7.50015 10.7205 7.50015 10.7198 7.50015C10.7191 7.50015 10.7184 7.50015 10.7177 7.50015C10.717 7.50015 10.7163 7.50015 10.7156 7.50015C10.7149 7.50015 10.7142 7.50015 10.7135 7.50015C10.7128 7.50015 10.7121 7.50015 10.7114 7.50015C10.7107 7.50015 10.71 7.50015 10.7093 7.50015C10.7086 7.50015 10.7079 7.50015 10.7073 7.50015C10.7066 7.50015 10.7059 7.50015 10.7052 7.50015C10.7045 7.50015 10.7039 7.50015 10.7032 7.50015C10.7025 7.50015 10.7018 7.50015 10.7012 7.50015C10.7005 7.50015 10.6998 7.50015 10.6992 7.50015C10.6985 7.50015 10.6978 7.50015 10.6972 7.50015C10.6965 7.50015 10.6958 7.50015 10.6952 7.50015C10.6945 7.50015 10.6939 7.50015 10.6932 7.50015C10.6926 7.50015 10.6919 7.50015 10.6913 7.50015C10.6906 7.50015 10.69 7.50015 10.6893 7.50015C10.6887 7.50015 10.6881 7.50015 10.6874 7.50015C10.6868 7.50015 10.6861 7.50015 10.6855 7.50015C10.6849 7.50015 10.6842 7.50015 10.6836 7.50015C10.683 7.50015 10.6823 7.50015 10.6817 7.50015C10.6811 7.50015 10.6805 7.50015 10.6798 7.50015C10.6792 7.50015 10.6786 7.50015 10.678 7.50015C10.6774 7.50015 10.6767 7.50015 10.6761 7.50015C10.6755 7.50015 10.6749 7.50015 10.6743 7.50015C10.6737 7.50015 10.6731 7.50015 10.6725 7.50015C10.6719 7.50015 10.6713 7.50015 10.6707 7.50015C10.6701 7.50015 10.6695 7.50015 10.6689 7.50015C10.6683 7.50015 10.6677 7.50015 10.6671 7.50015C10.6665 7.50015 10.6659 7.50015 10.6653 7.50015C10.6647 7.50015 10.6641 7.50015 10.6636 7.50015C10.663 7.50015 10.6624 7.50015 10.6618 7.50015C10.6612 7.50015 10.6607 7.50015 10.6601 7.50015C10.6595 7.50015 10.6589 7.50015 10.6584 7.50015C10.6578 7.50015 10.6572 7.50015 10.6566 7.50015C10.6561 7.50015 10.6555 7.50015 10.6549 7.50015C10.6544 7.50015 10.6538 7.50015 10.6533 7.50015C10.6527 7.50015 10.6521 7.50015 10.6516 7.50015C10.651 7.50015 10.6505 7.50015 10.6499 7.50015C10.6494 7.50015 10.6488 7.50015 10.6483 7.50015C10.6477 7.50015 10.6472 7.50015 10.6467 7.50015C10.6461 7.50015 10.6456 7.50015 10.645 7.50015C10.6445 7.50015 10.644 7.50015 10.6434 7.50015C10.6429 7.50015 10.6423 7.50015 10.6418 7.50015C10.6413 7.50015 10.6408 7.50015 10.6402 7.50015C10.6397 7.50015 10.6392 7.50015 10.6387 7.50015C10.6381 7.50015 10.6376 7.50015 10.6371 7.50015C10.6366 7.50015 10.6361 7.50015 10.6355 7.50015C10.635 7.50015 10.6345 7.50015 10.634 7.50015C10.6335 7.50015 10.633 7.50015 10.6325 7.50015C10.632 7.50015 10.6315 7.50015 10.631 7.50015C10.6304 7.50015 10.6299 7.50015 10.6294 7.50015C10.6289 7.50015 10.6284 7.50015 10.628 7.50015C10.6275 7.50015 10.627 7.50015 10.6265 7.50015C10.626 7.50015 10.6255 7.50015 10.625 7.50015C10.6245 7.50015 10.624 7.50015 10.6235 7.50015C10.6231 7.50015 10.6226 7.50015 10.6221 7.50015C10.6216 7.50015 10.6211 7.50015 10.6207 7.50015C10.6202 7.50015 10.6197 7.50015 10.6192 7.50015C10.6188 7.50015 10.6183 7.50015 10.6178 7.50015C10.6173 7.50015 10.6169 7.50015 10.6164 7.50015C10.616 7.50015 10.6155 7.50015 10.615 7.50015C10.6146 7.50015 10.6141 7.50015 10.6136 7.50015C10.6132 7.50015 10.6127 7.50015 10.6123 7.50015C10.6118 7.50015 10.6114 7.50015 10.6109 7.50015C10.6105 7.50015 10.61 7.50015 10.6096 7.50015C10.6091 7.50015 10.6087 7.50015 10.6082 7.50015C10.6078 7.50015 10.6073 7.50015 10.6069 7.50015C10.6065 7.50015 10.606 7.50015 10.6056 7.50015C10.6052 7.50015 10.6047 7.50015 10.6043 7.50015C10.6039 7.50015 10.6034 7.50015 10.603 7.50015C10.6026 7.50015 10.6021 7.50015 10.6017 7.50015C10.6013 7.50015 10.6009 7.50015 10.6004 7.50015C10.6 7.50015 10.5996 7.50015 10.5992 7.50015C10.5988 7.50015 10.5983 7.50015 10.5979 7.50015C10.5975 7.50015 10.5971 7.50015 10.5967 7.50015C10.5963 7.50015 10.5959 7.50015 10.5955 7.50015C10.5951 7.50015 10.5947 7.50015 10.5942 7.50015C10.5938 7.50015 10.5934 7.50015 10.593 7.50015C10.5926 7.50015 10.5922 7.50015 10.5918 7.50015C10.5914 7.50015 10.591 7.50015 10.5907 7.50015C10.5903 7.50015 10.5899 7.50015 10.5895 7.50015C10.5891 7.50015 10.5887 7.50015 10.5883 7.50015C10.5879 7.50015 10.5875 7.50015 10.5872 7.50015C10.5868 7.50015 10.5864 7.50015 10.586 7.50015C10.5856 7.50015 10.5852 7.50015 10.5849 7.50015C10.5845 7.50015 10.5841 7.50015 10.5837 7.50015C10.5834 7.50015 10.583 7.50015 10.5826 7.50015C10.5823 7.50015 10.5819 7.50015 10.5815 7.50015C10.5812 7.50015 10.5808 7.50015 10.5804 7.50015C10.5801 7.50015 10.5797 7.50015 10.5793 7.50015C10.579 7.50015 10.5786 7.50015 10.5783 7.50015C10.5779 7.50015 10.5775 7.50015 10.5772 7.50015C10.5768 7.50015 10.5765 7.50015 10.5761 7.50015C10.5758 7.50015 10.5754 7.50015 10.5751 7.50015C10.5747 7.50015 10.5744 7.50015 10.574 7.50015C10.5737 7.50015 10.5734 7.50015 10.573 7.50015C10.5727 7.50015 10.5723 7.50015 10.572 7.50015C10.5717 7.50015 10.5713 7.50015 10.571 7.50015C10.5707 7.50015 10.5703 7.50015 10.57 7.50015C10.5697 7.50015 10.5693 7.50015 10.569 7.50015C10.5687 7.50015 10.5683 7.50015 10.568 7.50015C10.5677 7.50015 10.5674 7.50015 10.567 7.50015C10.5667 7.50015 10.5664 7.50015 10.5661 7.50015C10.5658 7.50015 10.5654 7.50015 10.5651 7.50015C10.5648 7.50015 10.5645 7.50015 10.5642 7.50015C10.5639 7.50015 10.5636 7.50015 10.5633 7.50015C10.5629 7.50015 10.5626 7.50015 10.5623 7.50015C10.562 7.50015 10.5617 7.50015 10.5614 7.50015C10.5611 7.50015 10.5608 7.50015 10.5605 7.50015C10.5602 7.50015 10.5599 7.50015 10.5596 7.50015C10.5593 7.50015 10.559 7.50015 10.5587 7.50015C10.5584 7.50015 10.5581 7.50015 10.5578 7.50015C10.5575 7.50015 10.5573 7.50015 10.557 7.50015C10.5567 7.50015 10.5564 7.50015 10.5561 7.50015C10.5558 7.50015 10.5555 7.50015 10.5552 7.50015C10.555 7.50015 10.5547 7.50015 10.5544 7.50015C10.5541 7.50015 10.5538 7.50015 10.5536 7.50015C10.5533 7.50015 10.553 7.50015 10.5527 7.50015C10.5525 7.50015 10.5522 7.50015 10.5519 7.50015C10.5516 7.50015 10.5514 7.50015 10.5511 7.50015C10.5508 7.50015 10.5506 7.50015 10.5503 7.50015C10.55 7.50015 10.5498 7.50015 10.5495 7.50015C10.5492 7.50015 10.549 7.50015 10.5487 7.50015C10.5485 7.50015 10.5482 7.50015 10.5479 7.50015C10.5477 7.50015 10.5474 7.50015 10.5472 7.50015C10.5469 7.50015 10.5467 7.50015 10.5464 7.50015C10.5462 7.50015 10.5459 7.50015 10.5457 7.50015C10.5454 7.50015 10.5452 7.50015 10.5449 7.50015C10.5447 7.50015 10.5444 7.50015 10.5442 7.50015C10.5439 7.50015 10.5437 7.50015 10.5435 7.50015C10.5432 7.50015 10.543 7.50015 10.5427 7.50015C10.5425 7.50015 10.5423 7.50015 10.542 7.50015C10.5418 7.50015 10.5415 7.50015 10.5413 7.50015C10.5411 7.50015 10.5409 7.50015 10.5406 7.50015C10.5404 7.50015 10.5402 7.50015 10.5399 7.50015C10.5397 7.50015 10.5395 7.50015 10.5393 7.50015C10.539 7.50015 10.5388 7.50015 10.5386 7.50015C10.5384 7.50015 10.5381 7.50015 10.5379 7.50015C10.5377 7.50015 10.5375 7.50015 10.5373 7.50015C10.537 7.50015 10.5368 7.50015 10.5366 7.50015C10.5364 7.50015 10.5362 7.50015 10.536 7.50015C10.5358 7.50015 10.5355 7.50015 10.5353 7.50015C10.5351 7.50015 10.5349 7.50015 10.5347 7.50015C10.5345 7.50015 10.5343 7.50015 10.5341 7.50015C10.5339 7.50015 10.5337 7.50015 10.5335 7.50015C10.5333 7.50015 10.5331 7.50015 10.5329 7.50015C10.5327 7.50015 10.5325 7.50015 10.5323 7.50015C10.5321 7.50015 10.5319 7.50015 10.5317 7.50015C10.5315 7.50015 10.5313 7.50015 10.5311 7.50015C10.5309 7.50015 10.5307 7.50015 10.5305 7.50015C10.5303 7.50015 10.5301 7.50015 10.5299 7.50015C10.5298 7.50015 10.5296 7.50015 10.5294 7.50015C10.5292 7.50015 10.529 7.50015 10.5288 7.50015C10.5286 7.50015 10.5285 7.50015 10.5283 7.50015C10.5281 7.50015 10.5279 7.50015 10.5277 7.50015C10.5276 7.50015 10.5274 7.50015 10.5272 7.50015C10.527 7.50015 10.5269 7.50015 10.5267 7.50015C10.5265 7.50015 10.5263 7.50015 10.5262 7.50015C10.526 7.50015 10.5258 7.50015 10.5257 7.50015C10.5255 7.50015 10.5253 7.50015 10.5251 7.50015C10.525 7.50015 10.5248 7.50015 10.5246 7.50015C10.5245 7.50015 10.5243 7.50015 10.5242 7.50015C10.524 7.50015 10.5238 7.50015 10.5237 7.50015C10.5235 7.50015 10.5233 7.50015 10.5232 7.50015C10.523 7.50015 10.5229 7.50015 10.5227 7.50015C10.5226 7.50015 10.5224 7.50015 10.5222 7.50015C10.5221 7.50015 10.5219 7.50015 10.5218 7.50015C10.5216 7.50015 10.5215 7.50015 10.5213 7.50015C10.5212 7.50015 10.521 7.50015 10.5209 7.50015C10.5207 7.50015 10.5206 7.50015 10.5204 7.50015C10.5203 7.50015 10.5202 7.50015 10.52 7.50015C10.5199 7.50015 10.5197 7.50015 10.5196 7.50015C10.5194 7.50015 10.5193 7.50015 10.5192 7.50015C10.519 7.50015 10.5189 7.50015 10.5187 7.50015C10.5186 7.50015 10.5185 7.50015 10.5183 7.50015C10.5182 7.50015 10.5181 7.50015 10.5179 7.50015C10.5178 7.50015 10.5177 7.50015 10.5175 7.50015C10.5174 7.50015 10.5173 7.50015 10.5171 7.50015C10.517 7.50015 10.5169 7.50015 10.5168 7.50015C10.5166 7.50015 10.5165 7.50015 10.5164 7.50015C10.5162 7.50015 10.5161 7.50015 10.516 7.50015C10.5159 7.50015 10.5157 7.50015 10.5156 7.50015C10.5155 7.50015 10.5154 7.50015 10.5153 7.50015C10.5151 7.50015 10.515 7.50015 10.5149 7.50015C10.5148 7.50015 10.5147 7.50015 10.5146 7.50015C10.5144 7.50015 10.5143 7.50015 10.5142 7.50015C10.5141 7.50015 10.514 7.50015 10.5139 7.50015C10.5138 7.50015 10.5136 7.50015 10.5135 7.50015C10.5134 7.50015 10.5133 7.50015 10.5132 7.50015C10.5131 7.50015 10.513 7.50015 10.5129 7.50015C10.5128 7.50015 10.5127 7.50015 10.5126 7.50015C10.5125 7.50015 10.5123 7.50015 10.5122 7.50015C10.5121 7.50015 10.512 7.50015 10.5119 7.50015C10.5118 7.50015 10.5117 7.50015 10.5116 7.50015C10.5115 7.50015 10.5114 7.50015 10.5113 7.50015C10.5112 7.50015 10.5111 7.50015 10.511 7.50015C10.5109 7.50015 10.5108 7.50015 10.5108 7.50015C10.5107 7.50015 10.5106 7.50015 10.5105 7.50015C10.5104 7.50015 10.5103 7.50015 10.5102 7.50015C10.5101 7.50015 10.51 7.50015 10.5099 7.50015C10.5098 7.50015 10.5097 7.50015 10.5096 7.50015C10.5096 7.50015 10.5095 7.50015 10.5094 7.50015C10.5093 7.50015 10.5092 7.50015 10.5091 7.50015C10.509 7.50015 10.509 7.50015 10.5089 7.50015C10.5088 7.50015 10.5087 7.50015 10.5086 7.50015C10.5085 7.50015 10.5085 7.50015 10.5084 7.50015C10.5083 7.50015 10.5082 7.50015 10.5081 7.50015C10.5081 7.50015 10.508 7.50015 10.5079 7.50015C10.5078 7.50015 10.5078 7.50015 10.5077 7.50015C10.5076 7.50015 10.5075 7.50015 10.5075 7.50015C10.5074 7.50015 10.5073 7.50015 10.5072 7.50015C10.5072 7.50015 10.5071 7.50015 10.507 7.50015C10.5069 7.50015 10.5069 7.50015 10.5068 7.50015C10.5067 7.50015 10.5067 7.50015 10.5066 7.50015C10.5065 7.50015 10.5065 7.50015 10.5064 7.50015C10.5063 7.50015 10.5063 7.50015 10.5062 7.50015C10.5061 7.50015 10.5061 7.50015 10.506 7.50015C10.5059 7.50015 10.5059 7.50015 10.5058 7.50015C10.5057 7.50015 10.5057 7.50015 10.5056 7.50015C10.5056 7.50015 10.5055 7.50015 10.5054 7.50015C10.5054 7.50015 10.5053 7.50015 10.5053 7.50015C10.5052 7.50015 10.5051 7.50015 10.5051 7.50015C10.505 7.50015 10.505 7.50015 10.5049 7.50015C10.5049 7.50015 10.5048 7.50015 10.5047 7.50015C10.5047 7.50015 10.5046 7.50015 10.5046 7.50015C10.5045 7.50015 10.5045 7.50015 10.5044 7.50015C10.5044 7.50015 10.5043 7.50015 10.5043 7.50015C10.5042 7.50015 10.5042 7.50015 10.5041 7.50015C10.5041 7.50015 10.504 7.50015 10.504 7.50015C10.5039 7.50015 10.5039 7.50015 10.5038 7.50015C10.5038 7.50015 10.5037 7.50015 10.5037 7.50015C10.5036 7.50015 10.5036 7.50015 10.5035 7.50015C10.5035 7.50015 10.5034 7.50015 10.5034 7.50015C10.5034 7.50015 10.5033 7.50015 10.5033 7.50015C10.5032 7.50015 10.5032 7.50015 10.5031 7.50015C10.5031 7.50015 10.5031 7.50015 10.503 7.50015C10.503 7.50015 10.5029 7.50015 10.5029 7.50015C10.5029 7.50015 10.5028 7.50015 10.5028 7.50015C10.5027 7.50015 10.5027 7.50015 10.5027 7.50015C10.5026 7.50015 10.5026 7.50015 10.5026 7.50015C10.5025 7.50015 10.5025 7.50015 10.5024 7.50015C10.5024 7.50015 10.5024 7.50015 10.5023 7.50015C10.5023 7.50015 10.5023 7.50015 10.5022 7.50015C10.5022 7.50015 10.5022 7.50015 10.5021 7.50015C10.5021 7.50015 10.5021 7.50015 10.502 7.50015C10.502 7.50015 10.502 7.50015 10.502 7.50015C10.5019 7.50015 10.5019 7.50015 10.5019 7.50015C10.5018 7.50015 10.5018 7.50015 10.5018 7.50015C10.5017 7.50015 10.5017 7.50015 10.5017 7.50015C10.5017 7.50015 10.5016 7.50015 10.5016 7.50015C10.5016 7.50015 10.5016 7.50015 10.5015 7.50015C10.5015 7.50015 10.5015 7.50015 10.5015 7.50015C10.5014 7.50015 10.5014 7.50015 10.5014 7.50015C10.5014 7.50015 10.5013 7.50015 10.5013 7.50015C10.5013 7.50015 10.5013 7.50015 10.5012 7.50015C10.5012 7.50015 10.5012 7.50015 10.5012 7.50015C10.5012 7.50015 10.5011 7.50015 10.5011 7.50015C10.5011 7.50015 10.5011 7.50015 10.501 7.50015C10.501 7.50015 10.501 7.50015 10.501 7.50015C10.501 7.50015 10.501 7.50015 10.5009 7.50015C10.5009 7.50015 10.5009 7.50015 10.5009 7.50015C10.5009 7.50015 10.5008 7.50015 10.5008 7.50015C10.5008 7.50015 10.5008 7.50015 10.5008 7.50015C10.5008 7.50015 10.5007 7.50015 10.5007 7.50015C10.5007 7.50015 10.5007 7.50015 10.5007 7.50015C10.5007 7.50015 10.5006 7.50015 10.5006 7.50015C10.5006 7.50015 10.5006 7.50015 10.5006 7.50015C10.5006 7.50015 10.5006 7.50015 10.5006 7.50015C10.5005 7.50015 10.5005 7.50015 10.5005 7.50015C10.5005 7.50015 10.5005 7.50015 10.5005 7.50015C10.5005 7.50015 10.5005 7.50015 10.5004 7.50015C10.5004 7.50015 10.5004 7.50015 10.5004 7.50015C10.5004 7.50015 10.5004 7.50015 10.5004 7.50015C10.5004 7.50015 10.5004 7.50015 10.5003 7.50015C10.5003 7.50015 10.5003 7.50015 10.5003 7.50015C10.5003 7.50015 10.5003 7.50015 10.5003 7.50015C10.5003 7.50015 10.5003 7.50015 10.5003 7.50015C10.5003 7.50015 10.5003 7.50015 10.5002 7.50015C10.5002 7.50015 10.5002 7.50015 10.5002 7.50015C10.5002 7.50015 10.5002 7.50015 10.5002 7.50015C10.5002 7.50015 10.5002 7.50015 10.5002 7.50015C10.5002 7.50015 10.5002 7.50015 10.5002 7.50015C10.5002 7.50015 10.5002 7.50015 10.5001 7.50015C10.5001 7.50015 10.5001 7.50015 10.5001 7.50015C10.5001 7.50015 10.5001 7.50015 10.5001 7.50015C10.5001 7.50015 10.5001 7.50015 10.5001 7.50015C10.5001 7.50015 10.5001 7.50015 10.5001 7.50015C10.5001 7.50015 10.5001 7.50015 10.5001 7.50015C10.5001 7.50015 10.5001 7.50015 10.5001 7.50015C10.5001 7.50015 10.5001 7.50015 10.5001 7.50015C10.5001 7.50015 10.5001 7.50015 10.5001 7.50015C10.5 7.50015 10.5 7.50015 10.5 7.50015C10.5 7.50015 10.5 7.50015 10.5 7.50015C10.5 7.50015 10.5 7.50015 10.5 7.50015C10.5 7.50015 10.5 7.50015 10.5 7.50015C10.5 7.50015 10.5 7.50015 10.5 7.50015C10.5 7.50015 10.5 7.50015 10.5 7.50015C10.5 7.50015 10.5 7.50015 10.5 7.50015C10.5 7.50015 10.5 7.50015 10.5 7.50015C10.5 7.50015 10.5 7.50015 10.5 7.50015C10.5 7.50015 10.5 7.50015 10.5 7.50015C10.5 7.50015 10.5 7.50015 10.5 7.50015C10.5 7.50015 10.5 7.50015 10.5 7.50015C10.5 7.50015 10.5 7.50015 10.5 7.50015C10.5 7.50015 10.5 7.50015 10.5 7.50015C10.5 7.50015 10.5 7.50015 10.5 7.50015C10.5 7.50015 10.5 7.50015 10.5 7.50015C10.5 7.50015 10.5 7.50015 10.5 7.50015C10.5 7.50015 10.5 7.50015 10.5 7.50015C10.5 7.50015 10.5 7.50015 10.5 8.00015ZM11.5 8.00015V8.50015C11.8698 8.50015 12.2722 8.71284 12.5813 9.09735C12.8879 9.47879 13.0553 9.97419 13.0031 10.4448L13.5 10.5L13.9969 10.5552C14.0827 9.78321 13.8091 9.02868 13.3607 8.47085C12.9148 7.91608 12.2482 7.50015 11.5 7.50015V8.00015ZM13.5 10.5L13.0031 10.4448C12.9022 11.3529 12.288 11.9861 11.4912 12.0001L11.5 12.5L11.5088 12.9999C12.9208 12.9751 13.8539 11.8427 13.9969 10.5552L13.5 10.5ZM11.5 12.5L11.4912 12.0001C11.0961 12.007 10.8007 11.9063 10.6085 11.8097C10.5117 11.761 10.4407 11.7132 10.3969 11.6804C10.375 11.664 10.3601 11.6515 10.3524 11.6448C10.3486 11.6415 10.3465 11.6396 10.3463 11.6394C10.3462 11.6393 10.3466 11.6396 10.3474 11.6404C10.3478 11.6408 10.3483 11.6413 10.349 11.6419C10.3493 11.6422 10.3497 11.6426 10.35 11.643C10.3502 11.6431 10.3504 11.6433 10.3506 11.6435C10.3507 11.6436 10.3509 11.6438 10.3509 11.6439C10.3511 11.644 10.3513 11.6442 10 12C9.64874 12.3558 9.6489 12.356 9.64907 12.3562C9.64913 12.3562 9.6493 12.3564 9.64942 12.3565C9.64966 12.3567 9.6499 12.357 9.65016 12.3572C9.65067 12.3577 9.65121 12.3583 9.65179 12.3588C9.65294 12.3599 9.65424 12.3612 9.65567 12.3626C9.65853 12.3653 9.66195 12.3685 9.66593 12.3722C9.67387 12.3796 9.68404 12.3888 9.69641 12.3996C9.72115 12.4211 9.75483 12.4489 9.79734 12.4807C9.88223 12.5443 10.0032 12.6247 10.1594 12.7032C10.4731 12.8608 10.9277 13.0101 11.5088 12.9999L11.5 12.5Z" fill="black"/>
<path d="M4 4C4 3.72386 3.77614 3.5 3.5 3.5C3.22386 3.5 3 3.72386 3 4H3.5H4ZM3 12.5C3 12.7761 3.22386 13 3.5 13C3.77614 13 4 12.7761 4 12.5H3.5H3ZM8 4C8 3.72386 7.77614 3.5 7.5 3.5C7.22386 3.5 7 3.72386 7 4H7.5H8ZM7 12.5C7 12.7761 7.22386 13 7.5 13C7.77614 13 8 12.7761 8 12.5H7.5H7ZM3.5 4H3V8H3.5H4V4H3.5ZM3.5 8H3V12.5H3.5H4V8H3.5ZM3.5 8V8.5H7.5V8V7.5H3.5V8ZM7.5 4H7V12.5H7.5H8V4H7.5Z" fill="black"/>
</svg>
