<svg width="16" height="16" viewBox="0 0 16 16" fill="none" xmlns="http://www.w3.org/2000/svg">
<path d="M4 4C4 3.72386 3.77614 3.5 3.5 3.5C3.22386 3.5 3 3.72386 3 4H3.5H4ZM3 12.5C3 12.7761 3.22386 13 3.5 13C3.77614 13 4 12.7761 4 12.5H3.5H3ZM8 4C8 3.72386 7.77614 3.5 7.5 3.5C7.22386 3.5 7 3.72386 7 4H7.5H8ZM7 12.5C7 12.7761 7.22386 13 7.5 13C7.77614 13 8 12.7761 8 12.5H7.5H7ZM3.5 4H3V8H3.5H4V4H3.5ZM3.5 8H3V12.5H3.5H4V8H3.5ZM3.5 8V8.5H7.5V8V7.5H3.5V8ZM7.5 4H7V12.5H7.5H8V4H7.5Z" fill="black"/>
<path d="M14.5 8.5H9.5L12.5 4V12.5" stroke="black" stroke-linecap="round" stroke-linejoin="round"/>
</svg>
