<svg width="16" height="16" viewBox="0 0 16 16" fill="none" xmlns="http://www.w3.org/2000/svg">
<path d="M4.43164 5.38318C4.94621 5.38318 5.36319 5.80027 5.36328 6.31482C5.36328 6.82945 4.94627 7.24646 4.43164 7.24646C3.9171 7.24636 3.5 6.82939 3.5 6.31482C3.5001 5.80033 3.91715 5.38327 4.43164 5.38318Z" fill="black" stroke="black"/>
<path d="M12.5 3H3.5C2.39543 3 1.5 3.89543 1.5 5V11C1.5 12.1046 2.39543 13 3.5 13H12.5C13.6046 13 14.5 12.1046 14.5 11V5C14.5 3.89543 13.6046 3 12.5 3Z" stroke="black" stroke-linecap="round"/>
<path fill-rule="evenodd" clip-rule="evenodd" d="M11.5195 4.99966C11.6585 5.00509 11.7893 5.06892 11.8799 5.17447L14.3984 8.11295C14.7865 8.56591 14.9999 9.1434 15 9.7399V10.9997C15 12.3804 13.8807 13.4997 12.5 13.4997H3.5C2.93631 13.4997 2.41817 13.3105 2 12.9958V12.4997C2.00009 12.3672 2.05279 12.2398 2.14648 12.1461L5.64648 8.64615L5.72461 8.5817C5.91861 8.45368 6.18269 8.47548 6.35352 8.64615L7 9.29263L11.1465 5.14615L11.2266 5.08072C11.3126 5.02462 11.4152 4.99566 11.5195 4.99966Z" fill="black"/>
</svg>
