<svg width="16" height="16" viewBox="0 0 16 16" fill="none" xmlns="http://www.w3.org/2000/svg">
<rect x="2.5" y="2.5" width="2" height="11" rx="1" stroke="black"/>
<path d="M7.5 2.5C8.05228 2.5 8.5 2.94772 8.5 3.5V12.5C8.5 13.0523 8.05228 13.5 7.5 13.5C6.94772 13.5 6.5 13.0523 6.5 12.5V3.5C6.5 2.94772 6.94772 2.5 7.5 2.5Z" stroke="black"/>
<path d="M11.0471 2.60306C11.5883 2.45805 12.1435 2.78593 12.2772 3.32998L14.4601 12.2274C14.5896 12.7554 14.2734 13.2902 13.7483 13.4311C13.2071 13.5761 12.6519 13.2483 12.5183 12.7042L10.3354 3.8068C10.2059 3.27877 10.5221 2.74399 11.0471 2.60306Z" stroke="black"/>
</svg>
