<svg width="16" height="16" viewBox="0 0 16 16" fill="none" xmlns="http://www.w3.org/2000/svg">
<path d="M3.5 4.5C2.94772 4.5 2.5 4.05229 2.5 3.5C2.5 2.94771 2.94772 2.5 3.5 2.5C4.05229 2.5 4.5 2.94771 4.5 3.5C4.5 4.05229 4.05229 4.5 3.5 4.5Z" fill="black"/>
<path d="M3.5 9C2.94772 9 2.5 8.55229 2.5 8C2.5 7.44771 2.94772 7 3.5 7C4.05229 7 4.5 7.44771 4.5 8C4.5 8.55229 4.05229 9 3.5 9Z" fill="black"/>
<path d="M3.5 13.4546C2.94772 13.4546 2.5 13.0068 2.5 12.4546C2.5 11.9023 2.94772 11.4546 3.5 11.4546C4.05228 11.4546 4.5 11.9023 4.5 12.4546C4.5 13.0068 4.05228 13.4546 3.5 13.4546Z" fill="black"/>
<path d="M7 8.00002H13M7 12.5L13 12.5M7 3.50002H13" stroke="black" stroke-linecap="round"/>
</svg>
