<svg width="16" height="16" viewBox="0 0 16 16" fill="none" xmlns="http://www.w3.org/2000/svg">
<path d="M9.79437 11.2856C9.74402 11.4677 9.71432 11.6587 9.71429 11.8569C9.71429 12.0036 9.72917 12.1471 9.75726 12.2856H6.24359C6.27166 12.1472 6.28558 12.0035 6.28558 11.8569C6.28556 11.6588 6.25679 11.4676 6.20648 11.2856H9.79437ZM4.71429 9.79339C4.53226 9.7431 4.34104 9.7143 4.14301 9.71429C3.99623 9.71429 3.85277 9.72914 3.71429 9.75726V6.24261C3.85278 6.27072 3.99622 6.28558 4.14301 6.28558C4.34114 6.28556 4.53218 6.25584 4.71429 6.2055V9.79339ZM11.2856 6.2055C11.4677 6.25585 11.6587 6.28555 11.8569 6.28558C12.0036 6.28558 12.1471 6.27071 12.2856 6.24261V9.75726C12.1471 9.72916 12.0036 9.71429 11.8569 9.71429C11.6588 9.71431 11.4676 9.74308 11.2856 9.79339V6.2055ZM9.75824 3.71429C9.7301 3.85283 9.71429 3.99615 9.71429 4.143C9.71431 4.34112 9.74403 4.53218 9.79437 4.71429H6.20648C6.25678 4.53224 6.28557 4.34104 6.28558 4.143C6.28558 3.99621 6.27073 3.85277 6.24261 3.71429H9.75824Z" fill="black"/>
<circle cx="4.14286" cy="11.8572" r="1.64286" fill="black" stroke="black"/>
<circle cx="11.8572" cy="11.8572" r="1.64286" stroke="black"/>
<circle cx="11.8572" cy="4.14286" r="1.64286" fill="black" stroke="black"/>
<circle cx="4.14286" cy="4.14286" r="1.64286" stroke="black"/>
</svg>
