<svg width="16" height="16" viewBox="0 0 16 16" fill="none" xmlns="http://www.w3.org/2000/svg">
<path d="M14 8C14 11.3137 11.3137 14 8 14C4.68629 14 2 11.3137 2 8C2 4.68629 4.68629 2 8 2C11.3137 2 14 4.68629 14 8Z" stroke="black"/>
<path d="M4.78613 10.7032L6.02975 8.21596L8.93152 9.45957L9.34606 4.48511L11.8333 6.5578" stroke="black" stroke-linecap="round" stroke-linejoin="round"/>
<path d="M6.8588 8.20851C6.8588 8.66639 6.48761 9.03758 6.02972 9.03758C5.57184 9.03758 5.20065 8.66639 5.20065 8.20851C5.20065 7.75062 5.57184 7.37943 6.02972 7.37943C6.48761 7.37943 6.8588 7.75062 6.8588 8.20851Z" fill="black"/>
<path d="M9.76057 9.42636C9.76057 9.88425 9.38938 10.2554 8.9315 10.2554C8.47361 10.2554 8.10242 9.88425 8.10242 9.42636C8.10242 8.96847 8.47361 8.59728 8.9315 8.59728C9.38938 8.59728 9.76057 8.96847 9.76057 9.42636Z" fill="black"/>
<path d="M10.1197 4.4851C10.1197 4.94299 9.74846 5.31418 9.29058 5.31418C8.83269 5.31418 8.4615 4.94299 8.4615 4.4851C8.4615 4.02721 8.83269 3.65602 9.29058 3.65602C9.74846 3.65602 10.1197 4.02721 10.1197 4.4851Z" fill="black"/>
<path d="M12.6623 6.55781C12.6623 7.01569 12.2912 7.38688 11.8333 7.38688C11.3754 7.38688 11.0042 7.01569 11.0042 6.55781C11.0042 6.09992 11.3754 5.72873 11.8333 5.72873C12.2912 5.72873 12.6623 6.09992 12.6623 6.55781Z" fill="black"/>
<path d="M5.61519 10.7032C5.61519 11.1611 5.244 11.5323 4.78611 11.5323C4.32822 11.5323 3.95703 11.1611 3.95703 10.7032C3.95703 10.2453 4.32822 9.87411 4.78611 9.87411C5.244 9.87411 5.61519 10.2453 5.61519 10.7032Z" fill="black"/>
</svg>
