<svg width="16" height="16" viewBox="0 0 16 16" fill="none" xmlns="http://www.w3.org/2000/svg">
<path d="M8 1C11.866 1 15 4.13401 15 8C15 11.866 11.866 15 8 15C4.13401 15 1 11.866 1 8C1 4.13401 4.13401 1 8 1ZM11.8564 5.57227C11.6626 5.37593 11.345 5.37375 11.1484 5.56738L6.74316 9.91113L4.84082 8.13379C4.6391 7.94604 4.32309 7.95696 4.13477 8.1582C3.94635 8.35996 3.95755 8.67674 4.15918 8.86523L6.41211 10.9697C6.60808 11.1527 6.91357 11.1482 7.10449 10.96L11.8506 6.28027C12.047 6.08636 12.0503 5.76882 11.8564 5.57227Z" fill="black"/>
</svg>
