<svg width="16" height="16" viewBox="0 0 16 16" fill="none" xmlns="http://www.w3.org/2000/svg">
<path d="M5 1.5H8.47656C8.60666 1.5 8.73188 1.55095 8.8252 1.6416L12.3486 5.06445C12.4454 5.15858 12.5 5.28787 12.5 5.42285V7.5H3.5V3C3.5 2.17157 4.17157 1.5 5 1.5Z" stroke="black"/>
<path d="M8 1.50002V4.66666C8 5.21895 8.44772 5.66666 9 5.66666H12.5" stroke="black"/>
<rect x="1.5" y="7.5" width="13" height="7" rx="1.5" stroke="black"/>
<path d="M3.5 11.4141V9.41412H4.5C5.05228 9.41412 5.5 9.86184 5.5 10.4141C5.5 10.9664 5.05229 11.4141 4.5 11.4141L3.5 11.4141ZM3.5 11.4141V12.5" stroke="black" stroke-linecap="round" stroke-linejoin="round"/>
<path d="M7 12.5H6.5C6.5 12.7761 6.72386 13 7 13V12.5ZM7 9.5V9C6.72386 9 6.5 9.22386 6.5 9.5H7ZM9 11H8.5C8.5 11.3923 8.35405 11.606 8.14036 11.7459C7.89421 11.907 7.50641 12 7 12V12.5V13C7.59816 13 8.21036 12.8953 8.68807 12.5825C9.19823 12.2486 9.5 11.7123 9.5 11H9ZM7 9.5V10C7.50641 10 7.89421 10.093 8.14036 10.2541C8.35405 10.394 8.5 10.6077 8.5 11H9H9.5C9.5 10.2877 9.19823 9.75142 8.68807 9.41745C8.21036 9.10473 7.59816 9 7 9V9.5ZM7 9.5H6.5V12.5H7H7.5V9.5H7Z" fill="black"/>
<path d="M10.5 9.5L10.5034 9.00001C10.3702 8.99911 10.2421 9.05139 10.1476 9.14525C10.0531 9.23912 10 9.36681 10 9.5H10.5ZM12.4966 10.0135C12.7728 10.0154 12.9981 9.79305 13 9.51692C13.0019 9.24078 12.7795 9.01541 12.5034 9.01354L12.5 9.51353L12.4966 10.0135ZM10 12.5C10 12.7761 10.2239 13 10.5 13C10.7761 13 11 12.7761 11 12.5H10.5H10ZM12 11.5C12.2761 11.5 12.5 11.2761 12.5 11C12.5 10.7239 12.2761 10.5 12 10.5V11V11.5ZM10.5 9.5L10.4966 9.99999L12.4966 10.0135L12.5 9.51353L12.5034 9.01354L10.5034 9.00001L10.5 9.5ZM10.5 9.5H10V11H10.5H11V9.5H10.5ZM10.5 11H10V12.5H10.5H11V11H10.5ZM10.5 11V11.5H12V11V10.5H10.5V11Z" fill="black"/>
</svg>
