<svg width="16" height="16" viewBox="0 0 16 16" fill="none" xmlns="http://www.w3.org/2000/svg">
<path d="M9.20565 2.23707C9.53984 1.67815 10.3106 1.58266 10.771 2.04314L13.9066 5.17872C14.3671 5.63919 14.2716 6.40993 13.7127 6.74411L9.78476 9.09267C9.2984 9.38346 8.95823 9.86692 8.84878 10.4229L8.44975 12.4498L5.97487 9.97489L3.5 7.50002L5.52685 7.10099C6.08284 6.99153 6.5663 6.65136 6.85709 6.16501L9.20565 2.23707Z" fill="black"/>
<path d="M5.97487 9.97489L8.44975 12.4498L8.84878 10.4229C8.95823 9.86692 9.2984 9.38346 9.78476 9.09267L13.7127 6.74411C14.2716 6.40993 14.3671 5.63919 13.9066 5.17872L10.771 2.04314C10.3106 1.58266 9.53984 1.67815 9.20565 2.23707L6.85709 6.16501C6.5663 6.65136 6.08284 6.99153 5.52685 7.10099L3.5 7.50002L5.97487 9.97489ZM5.97487 9.97489L2.78661 13.2759" stroke="black" stroke-linecap="round" stroke-linejoin="round"/>
</svg>
