<svg width="16" height="16" viewBox="0 0 16 16" fill="none" xmlns="http://www.w3.org/2000/svg">
<path d="M4.5 1.5H8.5918C8.71356 1.5 8.83153 1.54448 8.92285 1.625L12.8311 5.07617C12.9385 5.17108 13 5.3078 13 5.45117V13C13 13.8284 12.3284 14.5 11.5 14.5H4.5C3.67157 14.5 3 13.8284 3 13V3C3 2.17157 3.67157 1.5 4.5 1.5Z" stroke="black"/>
<path d="M8 1.5V4.66665C8 5.21893 8.44772 5.66665 9 5.66665H12.725" stroke="black"/>
<path d="M5 9H7M9 9H11M9 12H11M5 12H7" stroke="black" stroke-linecap="round"/>
</svg>
