<svg width="16" height="16" viewBox="0 0 16 16" fill="none" xmlns="http://www.w3.org/2000/svg">
<path d="M12.8333 5H14.5V6.77778H12.8333V5Z" fill="black"/>
<path d="M14.5 6.77778C14.5 6.77778 14.4575 7.75217 14.2917 8.33333C14.1535 8.81744 13.6667 9.44444 13.6667 9.44444M14.5 6.77778V5H12.8333V6.77778H14.5Z" stroke="black" stroke-linecap="round" stroke-linejoin="round"/>
<path d="M9.5 5H11.1667V6.77778H9.5V5Z" fill="black"/>
<path d="M11.1667 6.77778C11.1667 6.77778 11.1242 7.75217 10.9583 8.33333C10.8202 8.81744 10.3333 9.44444 10.3333 9.44444M11.1667 6.77778V5H9.5V6.77778H11.1667Z" stroke="black" stroke-linecap="round" stroke-linejoin="round"/>
<path d="M3.16667 9.44444L1.5 9.44444L1.5 7.66667L3.16667 7.66667L3.16667 9.44444Z" fill="black"/>
<path d="M1.5 7.66667C1.5 7.66667 1.54252 6.69227 1.70834 6.11111C1.84647 5.62701 2.33334 5 2.33334 5M1.5 7.66667L1.5 9.44444L3.16667 9.44444L3.16667 7.66667L1.5 7.66667Z" stroke="black" stroke-linecap="round" stroke-linejoin="round"/>
<path d="M6.5 9.44444L4.83333 9.44444L4.83333 7.66667L6.5 7.66667L6.5 9.44444Z" fill="black"/>
<path d="M4.83333 7.66667C4.83333 7.66667 4.87585 6.69227 5.04167 6.11111C5.17979 5.62701 5.66667 5 5.66667 5M4.83333 7.66667L4.83333 9.44444L6.5 9.44444L6.5 7.66667L4.83333 7.66667Z" stroke="black" stroke-linecap="round" stroke-linejoin="round"/>
</svg>
