<svg width="16" height="16" viewBox="0 0 16 16" fill="none" xmlns="http://www.w3.org/2000/svg">
<path d="M9.5 4C9.5 3.72386 9.72386 3.5 10 3.5H12C12.2761 3.5 12.5 3.72386 12.5 4V6.7H10C9.72386 6.7 9.5 6.47614 9.5 6.2V4Z" fill="black"/>
<path d="M12.5 6.7C12.5 6.7 12.4235 8.45391 12.125 9.5C11.8764 10.3714 11 11.5 11 11.5M12.5 6.7V4C12.5 3.72386 12.2761 3.5 12 3.5H10C9.72386 3.5 9.5 3.72386 9.5 4V6.2C9.5 6.47614 9.72386 6.7 10 6.7H12.5Z" stroke="black" stroke-linecap="round"/>
<path d="M3.5 4C3.5 3.72386 3.72386 3.5 4 3.5H6C6.27614 3.5 6.5 3.72386 6.5 4V6.7H4C3.72386 6.7 3.5 6.47614 3.5 6.2V4Z" fill="black"/>
<path d="M6.5 6.7C6.5 6.7 6.42348 8.45391 6.125 9.5C5.87637 10.3714 5 11.5 5 11.5M6.5 6.7V4C6.5 3.72386 6.27614 3.5 6 3.5H4C3.72386 3.5 3.5 3.72386 3.5 4V6.2C3.5 6.47614 3.72386 6.7 4 6.7H6.5Z" stroke="black" stroke-linecap="round"/>
</svg>
