<svg width="16" height="16" viewBox="0 0 16 16" fill="none" xmlns="http://www.w3.org/2000/svg">
<path d="M3.5 8C3.5 7.72386 3.27614 7.5 3 7.5C2.72386 7.5 2.5 7.72386 2.5 8H3H3.5ZM3.9014 5.13542L4.31098 5.42221C5.1255 4.25896 6.47415 3.5 8 3.5V3V2.5C6.13414 2.5 4.48547 3.42958 3.49183 4.84863L3.9014 5.13542ZM8 3V3.5C10.4853 3.5 12.5 5.51472 12.5 8H13H13.5C13.5 4.96243 11.0376 2.5 8 2.5V3ZM13 8H12.5C12.5 10.4853 10.4853 12.5 8 12.5V13V13.5C11.0376 13.5 13.5 11.0376 13.5 8H13ZM8 13V12.5C5.51472 12.5 3.5 10.4853 3.5 8H3H2.5C2.5 11.0376 4.96243 13.5 8 13.5V13Z" fill="black"/>
<path d="M5.91666 5.08333H3.83333V3" stroke="black" stroke-linecap="round" stroke-linejoin="round"/>
</svg>
