<svg width="16" height="16" viewBox="0 0 16 16" fill="none" xmlns="http://www.w3.org/2000/svg">
<path d="M5 10C5 9.44772 5.44772 9 6 9H10C10.5523 9 11 9.44772 11 10L11 14.5H5L5 10Z" stroke="black"/>
<path d="M10.4854 1.5H4.5C3.39543 1.5 2.5 2.39543 2.5 3.5V12.5C2.5 13.6046 3.39543 14.5 4.5 14.5H11.5C12.6046 14.5 13.5 13.6046 13.5 12.5V5.32047C13.5 5.11204 13.4349 4.90883 13.3137 4.73923L11.2991 1.91876C11.1114 1.65597 10.8083 1.5 10.4854 1.5Z" stroke="black"/>
<path d="M9.5 4C9.5 4.55228 9.05228 5 8.5 5L6 5C5.44771 5 5 4.55229 5 4L5 1.5L9.5 1.5L9.5 4Z" stroke="black"/>
</svg>
