<svg width="16" height="16" viewBox="0 0 16 16" fill="none" xmlns="http://www.w3.org/2000/svg">
<path d="M5.5 11L14.5 11" stroke="black" stroke-linecap="round"/>
<path d="M1.5 5H10.5" stroke="black" stroke-linecap="round"/>
<path d="M12.5 3C13.6046 3 14.5 3.89543 14.5 5C14.5 6.10457 13.6046 7 12.5 7C11.3954 7 10.5 6.10457 10.5 5C10.5 3.89543 11.3954 3 12.5 3Z" stroke="black"/>
<path d="M3.5 9C4.60457 9 5.5 9.89543 5.5 11C5.5 12.1046 4.60457 13 3.5 13C2.39543 13 1.5 12.1046 1.5 11C1.5 9.89543 2.39543 9 3.5 9Z" stroke="black"/>
</svg>
