<svg width="16" height="16" viewBox="0 0 16 16" fill="none" xmlns="http://www.w3.org/2000/svg">
<path d="M7.66603 1.96353C7.81571 1.50287 8.46742 1.50287 8.61709 1.96353L9.7664 5.50074C9.83334 5.70675 10.0253 5.84623 10.2419 5.84623H13.9612C14.4455 5.84623 14.6469 6.46604 14.2551 6.75074L11.2461 8.93685C11.0709 9.06418 10.9976 9.28986 11.0645 9.49587L12.2138 13.0331C12.3635 13.4937 11.8362 13.8768 11.4444 13.5921L8.43546 11.406C8.26021 11.2787 8.02291 11.2787 7.84767 11.406L4.83874 13.5921C4.44688 13.8768 3.91964 13.4937 4.06932 13.0331L5.21863 9.49587C5.28556 9.28986 5.21224 9.06418 5.03699 8.93685L2.02806 6.75074C1.6362 6.46604 1.83759 5.84623 2.32195 5.84623H6.0412C6.25781 5.84623 6.44979 5.70675 6.51673 5.50074L7.66603 1.96353Z" fill="black" stroke="black" stroke-linejoin="round"/>
</svg>
