<svg width="16" height="16" viewBox="0 0 16 16" fill="none" xmlns="http://www.w3.org/2000/svg">
<path d="M7.66602 1.96353C7.8157 1.50287 8.4674 1.50287 8.61708 1.96353L9.76639 5.50074C9.83332 5.70675 10.0253 5.84623 10.2419 5.84623H13.9612C14.4455 5.84623 14.6469 6.46604 14.2551 6.75074L11.2461 8.93685C11.0709 9.06418 10.9975 9.28986 11.0645 9.49587L12.2138 13.0331C12.3635 13.4937 11.8362 13.8768 11.4444 13.5921L8.43544 11.406C8.2602 11.2787 8.0229 11.2787 7.84766 11.406L4.83872 13.5921C4.44687 13.8768 3.91963 13.4937 4.0693 13.0331L5.21861 9.49587C5.28555 9.28986 5.21222 9.06418 5.03698 8.93685L2.02805 6.75074C1.63619 6.46604 1.83758 5.84623 2.32194 5.84623H6.04118C6.25779 5.84623 6.44977 5.70675 6.51671 5.50074L7.66602 1.96353Z" stroke="black" stroke-linejoin="round"/>
</svg>
