<svg width="16" height="16" viewBox="0 0 16 16" fill="none" xmlns="http://www.w3.org/2000/svg">
<path d="M5.50002 4.5C5.50002 5.60457 4.60459 6.5 3.50002 6.5C2.39545 6.5 1.50002 5.60457 1.50002 4.5C1.50002 3.39543 2.39545 2.5 3.50002 2.5C4.60459 2.5 5.50002 3.39543 5.50002 4.5ZM5.50002 4.5H14.5M5.5 11.5C5.5 12.6046 4.60457 13.5 3.5 13.5C2.39543 13.5 1.5 12.6046 1.5 11.5C1.5 10.3954 2.39543 9.5 3.5 9.5C4.60457 9.5 5.5 10.3954 5.5 11.5ZM5.5 11.5H14.5" stroke="black" stroke-linecap="round"/>
</svg>
