<svg width="16" height="16" viewBox="0 0 16 16" fill="none" xmlns="http://www.w3.org/2000/svg">
<path fill-rule="evenodd" clip-rule="evenodd" d="M9.5 2C10.3284 2 11 2.67157 11 3.5V4H13.5C13.7761 4 14 4.22386 14 4.5C14 4.77614 13.7761 5 13.5 5H13V11.5C13 12.8807 11.8807 14 10.5 14H5.5C4.11929 14 3 12.8807 3 11.5V5H2.5C2.22386 5 2 4.77614 2 4.5C2 4.22386 2.22386 4 2.5 4H5V3.5C5 2.67157 5.67157 2 6.5 2H9.5ZM4 11.5C4 12.3284 4.67157 13 5.5 13H10.5C11.3284 13 12 12.3284 12 11.5V5H4V11.5ZM6.5 6C6.77614 6 7 6.22386 7 6.5V11.5C7 11.7761 6.77614 12 6.5 12C6.22386 12 6 11.7761 6 11.5V6.5C6 6.22386 6.22386 6 6.5 6ZM9.5 6C9.77614 6 10 6.22386 10 6.5V11.5C10 11.7761 9.77614 12 9.5 12C9.22386 12 9 11.7761 9 11.5V6.5C9 6.22386 9.22386 6 9.5 6ZM6.5 3C6.22386 3 6 3.22386 6 3.5V4H10V3.5C10 3.22386 9.77614 3 9.5 3H6.5Z" fill="black"/>
</svg>
