<svg width="16" height="16" viewBox="0 0 16 16" fill="none" xmlns="http://www.w3.org/2000/svg">
<path d="M10 1.5C11.3807 1.5 12.5 2.61929 12.5 4H13.5C13.7761 4 14 4.22386 14 4.5C14 4.77614 13.7761 5 13.5 5H13V12.5C13 13.8807 11.8807 15 10.5 15H5.5C4.11929 15 3 13.8807 3 12.5V5H2.5C2.22386 5 2 4.77614 2 4.5C2 4.22386 2.22386 4 2.5 4H3.5C3.5 2.61929 4.61929 1.5 6 1.5H10ZM4 12.5C4 13.3284 4.67157 14 5.5 14H10.5C11.3284 14 12 13.3284 12 12.5V5H4V12.5ZM5.5 6C5.77614 6 6 6.22386 6 6.5V12.5C6 12.7761 5.77614 13 5.5 13C5.22386 13 5 12.7761 5 12.5V6.5C5 6.22386 5.22386 6 5.5 6ZM8 6C8.27614 6 8.5 6.22386 8.5 6.5V12.5L8.49023 12.6006C8.44371 12.8286 8.24171 13 8 13C7.75829 13 7.55629 12.8286 7.50977 12.6006L7.5 12.5V6.5C7.5 6.22386 7.72386 6 8 6ZM10.5 6C10.7761 6 11 6.22386 11 6.5V12.5C11 12.7761 10.7761 13 10.5 13C10.2239 13 10 12.7761 10 12.5V6.5C10 6.22386 10.2239 6 10.5 6ZM6 2.5C5.17157 2.5 4.5 3.17157 4.5 4H11.5C11.5 3.17157 10.8284 2.5 10 2.5H6Z" fill="black"/>
</svg>
