<svg width="16" height="16" viewBox="0 0 16 16" fill="none" xmlns="http://www.w3.org/2000/svg">
<path d="M13.0005 1.00034C14.1048 1.00058 15.0005 1.89592 15.0005 3.00034V13.0003C15.0003 14.1046 14.1047 15.0001 13.0005 15.0003H3.00046C1.896 15.0003 1.00064 14.1047 1.00046 13.0003V3.00034C1.00046 1.89577 1.89589 1.00034 3.00046 1.00034H13.0005ZM2.50046 5.50034C2.22432 5.50034 2.00046 5.72419 2.00046 6.00034C2.00065 6.27632 2.22443 6.50034 2.50046 6.50034H3.50046V10.0003C3.50065 10.2763 3.72443 10.5003 4.00046 10.5003C4.27627 10.5001 4.50027 10.2762 4.50046 10.0003V6.50034H5.50046C5.77627 6.50008 6.00027 6.27616 6.00046 6.00034C6.00046 5.72435 5.77639 5.50059 5.50046 5.50034H2.50046ZM10.5005 5.50034C10.2243 5.50034 10.0005 5.72419 10.0005 6.00034C10.0006 6.27632 10.2244 6.50034 10.5005 6.50034H11.5005V10.0003C11.5006 10.2763 11.7244 10.5003 12.0005 10.5003C12.2763 10.5001 12.5003 10.2762 12.5005 10.0003V6.50034H13.5005C13.7763 6.50009 14.0003 6.27617 14.0005 6.00034C14.0005 5.72434 13.7764 5.50058 13.5005 5.50034H10.5005ZM9.22409 5.55307C8.9771 5.42958 8.67669 5.52972 8.55319 5.7767L8.00046 6.88217L7.44772 5.7767C7.32427 5.52979 7.02377 5.42975 6.77682 5.55307C6.52984 5.67656 6.4297 5.97698 6.55319 6.22397L7.44089 8.00034L6.55319 9.7767C6.42977 10.0237 6.52987 10.3241 6.77682 10.4476C7.02369 10.5707 7.32428 10.4707 7.44772 10.224L8.00046 9.1185L8.55319 10.224C8.67683 10.4706 8.97725 10.571 9.22409 10.4476C9.47076 10.3241 9.57083 10.0235 9.44772 9.7767L8.55905 8.00034L9.44772 6.22397C9.57113 5.97715 9.47071 5.67672 9.22409 5.55307Z" fill="black"/>
</svg>
