<svg width="16" height="16" viewBox="0 0 16 16" fill="none" xmlns="http://www.w3.org/2000/svg">
<path d="M5.50001 4.21515L5.08445 3.9371L5.50001 4.21515ZM10.2639 3L10.1157 3.47753C10.2583 3.52176 10.4131 3.50001 10.5379 3.41823L10.2639 3ZM13 2.34832L12.6464 2.70187L13 2.34832ZM12 5L11.6464 4.64645C11.5527 4.74022 11.5 4.86739 11.5 5C11.5 5.13261 11.5527 5.25979 11.6464 5.35355L12 5ZM12.5 6.2L12.0257 6.04189L12.5 6.2ZM9.00001 7.5L9.03327 7.00111C8.85444 6.98919 8.68291 7.07389 8.58366 7.22313C8.48442 7.37236 8.47264 7.56331 8.55279 7.72361L9.00001 7.5ZM9.00001 9.2L8.59314 8.90938L9.00001 9.2ZM5.54393 13.5102C5.43075 13.7621 5.54319 14.058 5.79507 14.1712C6.04695 14.2844 6.34289 14.172 6.45608 13.9201L6.00001 13.7151L5.54393 13.5102ZM7.50001 12.2151L7.50328 12.7151L7.50001 12.2151ZM9.00001 13.9687L8.91966 14.4622L9.00001 13.9687ZM11 12.7151L11.0679 12.2198L11 12.7151ZM12.5 13.9687L12.5037 14.4687L12.5 13.9687ZM14.4572 12.6571C14.569 12.4046 14.4549 12.1092 14.2024 11.9974C13.9499 11.8856 13.6546 11.9997 13.5428 12.2522L14 12.4546L14.4572 12.6571ZM3.50061 9.97549C3.48707 10.2513 3.69969 10.4859 3.9755 10.4994C4.25131 10.5129 4.48587 10.3003 4.4994 10.0245L4.00001 10L3.50061 9.97549ZM3.24546 10.4121C2.97898 10.4845 2.82168 10.7593 2.89411 11.0257C2.96654 11.2922 3.24127 11.4495 3.50775 11.3771L3.3766 10.8946L3.24546 10.4121ZM5.50001 4.21515L5.91556 4.4932C5.97469 4.40484 6.32667 3.88525 6.83497 3.39266C7.3642 2.87978 7.95729 2.5 8.50001 2.5L8.50001 2L8.5 1.5C7.54272 1.5 6.70181 2.12917 6.13904 2.67454C5.55533 3.24021 5.15732 3.8282 5.08445 3.9371L5.50001 4.21515ZM8.50001 2L8.50001 2.5C8.83024 2.5 9.02735 2.54679 9.1464 2.59621C9.25733 2.64227 9.32043 2.69862 9.37187 2.76073C9.40093 2.79583 9.42841 2.83547 9.46184 2.88711C9.48984 2.93036 9.53648 3.00551 9.5804 3.06746C9.67889 3.20639 9.83815 3.3914 10.1157 3.47753L10.2639 3L10.4121 2.52246C10.4397 2.53101 10.4409 2.55224 10.3962 2.48913C10.3685 2.45005 10.3472 2.41461 10.3013 2.34371C10.2609 2.28119 10.2085 2.20311 10.142 2.1229C10.0025 1.9544 9.81213 1.78985 9.52983 1.67265C9.25565 1.55881 8.91978 1.5 8.5 1.5L8.50001 2ZM10.2639 3L10.5379 3.41823C11.0581 3.07742 11.5089 2.77855 11.9111 2.63376C12.1048 2.56405 12.2507 2.54468 12.3602 2.55671C12.4573 2.56737 12.5491 2.60452 12.6464 2.70187L13 2.34832L13.3536 1.99477C13.0974 1.73856 12.7954 1.5985 12.4694 1.56269C12.1559 1.52825 11.8494 1.59315 11.5724 1.69286C11.0334 1.88689 10.4697 2.26742 9.9899 2.58176L10.2639 3ZM13 2.34832L12.6464 2.70187C12.6749 2.73031 12.7658 2.87624 12.5974 3.30322C12.4421 3.69687 12.1139 4.17902 11.6464 4.64645L12 5L12.3536 5.35355C12.8861 4.82098 13.3079 4.2273 13.5276 3.67011C13.7342 3.14625 13.8251 2.46634 13.3536 1.99477L13 2.34832ZM12 5L11.6464 5.35355C11.8813 5.5884 11.9818 5.7379 12.0222 5.83611C12.0514 5.90722 12.0536 5.95815 12.0257 6.04189L12.5 6.2L12.9743 6.35811C13.0721 6.06476 13.0743 5.76569 12.9471 5.45607C12.8311 5.17356 12.6187 4.9116 12.3536 4.64645L12 5ZM9.00001 7.5C8.55279 7.72361 8.55272 7.72346 8.55265 7.72332C8.55263 7.72328 8.55256 7.72314 8.55252 7.72306C8.55243 7.72289 8.55236 7.72273 8.55229 7.72259C8.55215 7.72231 8.55204 7.72209 8.55196 7.72193C8.55179 7.72159 8.55174 7.72149 8.5518 7.72161C8.55192 7.72185 8.55246 7.72297 8.55339 7.72494C8.55525 7.72889 8.55865 7.73619 8.56322 7.74654C8.57241 7.76731 8.58618 7.79993 8.60187 7.84198C8.63364 7.92713 8.6712 8.04537 8.69587 8.17855C8.74792 8.45964 8.72807 8.72048 8.59314 8.90938L9.00001 9.2L9.40687 9.49062C9.77195 8.97952 9.75209 8.39036 9.67915 7.99646C9.64131 7.79213 9.58512 7.61662 9.53877 7.49239C9.5154 7.42976 9.49401 7.37878 9.4778 7.34213C9.46968 7.32377 9.46282 7.30891 9.45761 7.29786C9.455 7.29234 9.4528 7.28776 9.45105 7.28417C9.45018 7.28238 9.44942 7.28083 9.44878 7.27953C9.44846 7.27888 9.44817 7.27829 9.44791 7.27777C9.44778 7.27751 9.44765 7.27726 9.44754 7.27703C9.44748 7.27692 9.4474 7.27676 9.44737 7.2767C9.4473 7.27655 9.44722 7.27639 9.00001 7.5ZM6.00001 13.7151C6.45608 13.9201 6.45603 13.9202 6.45599 13.9203C6.45598 13.9203 6.45594 13.9204 6.45592 13.9204C6.45588 13.9205 6.45585 13.9206 6.45583 13.9206C6.45578 13.9207 6.45578 13.9207 6.45582 13.9207C6.45589 13.9205 6.45612 13.92 6.4565 13.9192C6.45727 13.9175 6.45866 13.9145 6.46065 13.9102C6.46464 13.9017 6.47102 13.8882 6.47969 13.8705C6.49704 13.835 6.52335 13.7828 6.55758 13.7196C6.62667 13.592 6.72502 13.4249 6.84412 13.2607C6.96519 13.0938 7.09561 12.9466 7.22489 12.8451C7.35648 12.7418 7.44834 12.7155 7.50328 12.7151L7.50001 12.2151L7.49673 11.7152C7.13747 11.7175 6.83472 11.8801 6.6074 12.0585C6.37777 12.2388 6.18496 12.4663 6.03458 12.6736C5.88224 12.8837 5.76092 13.0907 5.67819 13.2435C5.63652 13.3204 5.60388 13.3851 5.58128 13.4313C5.56996 13.4545 5.56111 13.4731 5.55485 13.4865C5.55172 13.4932 5.54924 13.4986 5.54741 13.5026C5.5465 13.5045 5.54575 13.5062 5.54517 13.5075C5.54488 13.5081 5.54463 13.5087 5.54443 13.5091C5.54432 13.5093 5.54423 13.5095 5.54415 13.5097C5.54411 13.5098 5.54405 13.5099 5.54403 13.51C5.54398 13.5101 5.54393 13.5102 6.00001 13.7151ZM7.50001 12.2151L7.50328 12.7151C7.54148 12.7149 7.55179 12.7155 7.58793 12.7642C7.64923 12.8468 7.70266 12.9784 7.7838 13.2044C7.85295 13.397 7.94758 13.6748 8.09827 13.9059C8.2631 14.1587 8.52049 14.3973 8.91966 14.4622L9.00001 13.9687L9.08035 13.4752C9.03479 13.4678 8.99495 13.4502 8.93595 13.3597C8.86281 13.2476 8.807 13.0949 8.72498 12.8665C8.65495 12.6714 8.55648 12.3914 8.39103 12.1684C8.20042 11.9115 7.90911 11.7125 7.49673 11.7152L7.50001 12.2151ZM9.00001 13.9687L8.91966 14.4622C9.30966 14.5257 9.62641 14.4008 9.86994 14.2162C10.0901 14.0494 10.2658 13.8205 10.3924 13.6588C10.5383 13.4724 10.6358 13.3522 10.7362 13.2744C10.8149 13.2135 10.8658 13.2014 10.9321 13.2105L11 12.7151L11.0679 12.2198C10.6776 12.1663 10.3639 12.298 10.1242 12.4836C9.90612 12.6523 9.73121 12.8811 9.60502 13.0423C9.45954 13.2281 9.36334 13.3454 9.26588 13.4193C9.19181 13.4754 9.14526 13.4858 9.08035 13.4752L9.00001 13.9687ZM11 12.7151L10.9321 13.2105C11.0346 13.2246 11.1029 13.2892 11.3213 13.6447C11.4807 13.904 11.8025 14.4739 12.5037 14.4687L12.5 13.9687L12.4963 13.4688C12.434 13.4692 12.3841 13.4642 12.1734 13.1212C12.0218 12.8744 11.7217 12.3094 11.0679 12.2198L11 12.7151ZM12.5 13.9687L12.5037 14.4687C12.8647 14.4661 13.1683 14.3018 13.3959 14.1216C13.6258 13.9396 13.8184 13.71 13.9684 13.5008C14.1204 13.2889 14.2413 13.0801 14.3237 12.926C14.3651 12.8484 14.3976 12.7832 14.4201 12.7366C14.4313 12.7132 14.4401 12.6944 14.4464 12.6809C14.4495 12.6742 14.4519 12.6688 14.4537 12.6648C14.4546 12.6627 14.4554 12.6611 14.456 12.6598C14.4563 12.6592 14.4565 12.6586 14.4567 12.6582C14.4568 12.6579 14.4569 12.6577 14.457 12.6575C14.457 12.6574 14.4571 12.6573 14.4571 12.6573C14.4571 12.6572 14.4572 12.6571 14 12.4546C13.5428 12.2522 13.5429 12.2521 13.5429 12.252C13.5429 12.252 13.5429 12.2519 13.543 12.2519C13.543 12.2518 13.543 12.2517 13.5431 12.2517C13.5431 12.2516 13.5431 12.2516 13.5431 12.2516C13.543 12.2518 13.5428 12.2523 13.5424 12.2532C13.5416 12.2549 13.5402 12.2579 13.5382 12.2622C13.5343 12.2708 13.5279 12.2844 13.5193 12.3023C13.502 12.3382 13.4758 12.3909 13.4417 12.4547C13.3728 12.5835 13.2748 12.7522 13.1558 12.918C13.0349 13.0866 12.9045 13.2351 12.7751 13.3376C12.6435 13.4419 12.5515 13.4684 12.4963 13.4688L12.5 13.9687ZM12.5 6.2L12.0257 6.04189C11.9529 6.26023 11.7827 6.44395 11.5024 6.59721C11.2185 6.75238 10.8569 6.85556 10.4791 6.91951C10.1054 6.98275 9.7415 7.00345 9.46846 7.00788C9.33277 7.01008 9.22151 7.00823 9.14518 7.0059C9.10705 7.00473 9.07777 7.00345 9.05865 7.0025C9.04909 7.00202 9.04209 7.00163 9.0378 7.00138C9.03566 7.00126 9.03419 7.00116 9.03343 7.00112C9.03305 7.00109 9.03284 7.00108 9.03281 7.00108C9.0328 7.00108 9.03283 7.00108 9.0329 7.00108C9.03294 7.00109 9.03303 7.00109 9.03305 7.00109C9.03315 7.0011 9.03327 7.00111 9.00001 7.5C8.96675 7.99889 8.96688 7.9989 8.96703 7.99891C8.96709 7.99892 8.96725 7.99893 8.96738 7.99894C8.96764 7.99895 8.96794 7.99897 8.96829 7.99899C8.96899 7.99904 8.96987 7.9991 8.97094 7.99916C8.97306 7.9993 8.97591 7.99947 8.97945 7.99968C8.98655 8.00009 8.99645 8.00064 9.00899 8.00126C9.03406 8.00251 9.06972 8.00406 9.1146 8.00543C9.20429 8.00817 9.3313 8.01023 9.48467 8.00775C9.78976 8.0028 10.2071 7.97975 10.6459 7.90549C11.0806 7.83194 11.5627 7.70387 11.982 7.47466C12.4048 7.24355 12.7971 6.88977 12.9743 6.35811L12.5 6.2ZM4.00001 10C4.4994 10.0245 4.4994 10.0246 4.4994 10.0246C4.4994 10.0246 4.4994 10.0247 4.4994 10.0246C4.4994 10.0246 4.4994 10.0246 4.49941 10.0244C4.49942 10.0242 4.49945 10.0237 4.49948 10.023C4.49956 10.0216 4.49968 10.0192 4.49985 10.016C4.5002 10.0096 4.50076 9.99961 4.50155 9.98628C4.50314 9.9596 4.50567 9.91948 4.50938 9.86728C4.51679 9.76287 4.52888 9.61031 4.54745 9.42065C4.58463 9.04088 4.64757 8.51467 4.75033 7.92958C4.95938 6.73939 5.32098 5.38182 5.91556 4.4932L5.50001 4.21515L5.08445 3.9371C4.36668 5.00983 3.97827 6.54468 3.76541 7.75658C3.65722 8.37254 3.59122 8.92479 3.55221 9.32321C3.53268 9.52265 3.51986 9.68413 3.51189 9.79647C3.5079 9.85266 3.50512 9.89659 3.50332 9.92688C3.50241 9.94203 3.50176 9.95377 3.50132 9.96193C3.50109 9.96601 3.50093 9.96919 3.50081 9.97146C3.50075 9.97259 3.50071 9.9735 3.50067 9.97417C3.50065 9.97451 3.50064 9.97479 3.50063 9.97501C3.50062 9.97512 3.50062 9.97524 3.50062 9.97529C3.50061 9.9754 3.50061 9.97549 4.00001 10ZM9.00001 9.2L8.59314 8.90938C8.26975 9.36212 7.95353 9.54722 7.64567 9.63788C7.30248 9.73895 6.95495 9.73302 6.48173 9.75033L6.50001 10.25L6.51829 10.7497C6.91385 10.7352 7.43115 10.7435 7.92817 10.5971C8.46053 10.4404 8.95991 10.1164 9.40687 9.49062L9.00001 9.2ZM6.50001 10.25L6.48173 9.75033C5.99019 9.76832 5.16085 9.94253 4.49868 10.0973C4.15791 10.177 3.84515 10.2556 3.61773 10.3142C3.50392 10.3435 3.41126 10.3679 3.34687 10.3849C3.31467 10.3935 3.28953 10.4002 3.27233 10.4049C3.26373 10.4072 3.25712 10.4089 3.25261 10.4102C3.25035 10.4108 3.24861 10.4112 3.24742 10.4116C3.24682 10.4117 3.24636 10.4119 3.24603 10.4119C3.24587 10.412 3.24574 10.412 3.24564 10.4121C3.24559 10.4121 3.24555 10.4121 3.24552 10.4121C3.24549 10.4121 3.24546 10.4121 3.3766 10.8946C3.50775 11.3771 3.50774 11.3771 3.50773 11.3771C3.50774 11.3771 3.50775 11.3771 3.50777 11.3771C3.50781 11.3771 3.50789 11.3771 3.508 11.377C3.50822 11.377 3.50857 11.3769 3.50906 11.3767C3.51004 11.3765 3.51155 11.3761 3.51359 11.3755C3.51766 11.3744 3.52381 11.3728 3.53194 11.3706C3.54819 11.3662 3.57234 11.3597 3.60348 11.3515C3.66579 11.3349 3.75605 11.3112 3.86719 11.2825C4.08966 11.2252 4.39485 11.1486 4.72634 11.0711C5.40867 10.9116 6.14104 10.7635 6.51829 10.7497L6.50001 10.25Z" fill="black"/>
<path d="M3.5 12.7151L3.71573 13.1662L3.5 12.7151ZM5.03291 12.8854C5.30845 12.8673 5.51709 12.6292 5.49892 12.3536C5.48074 12.0781 5.24264 11.8694 4.96709 11.8876L5 12.3865L5.03291 12.8854ZM4 10L4.38289 10.3216L4.40836 10.2912L4.42875 10.2572L4 10ZM2 13.9383L1.52588 13.7795C1.4513 14.0022 1.54179 14.2468 1.74336 14.3674C1.94494 14.4879 2.20325 14.4519 2.36418 14.2809L2 13.9383ZM9.27401 5.62522C9.50499 5.47389 9.56956 5.16396 9.41824 4.93298C9.26691 4.70199 8.95698 4.63742 8.72599 4.78875L9 5.20699L9.27401 5.62522ZM3.5 12.7151L3.71573 13.1662C3.9265 13.0654 4.24241 12.9919 4.53787 12.9447C4.67931 12.922 4.80505 12.9071 4.89515 12.8978C4.94004 12.8932 4.9757 12.89 4.99958 12.888C5.01151 12.887 5.02047 12.8864 5.02613 12.8859C5.02897 12.8857 5.03097 12.8856 5.03212 12.8855C5.03269 12.8855 5.03304 12.8854 5.03318 12.8854C5.03324 12.8854 5.03325 12.8854 5.03321 12.8854C5.03319 12.8854 5.03315 12.8854 5.0331 12.8854C5.03308 12.8854 5.03303 12.8854 5.03301 12.8854C5.03296 12.8854 5.03291 12.8854 5 12.3865C4.96709 11.8876 4.96703 11.8876 4.96696 11.8876C4.96694 11.8876 4.96687 11.8876 4.96681 11.8876C4.96671 11.8876 4.96658 11.8876 4.96645 11.8877C4.96617 11.8877 4.96584 11.8877 4.96545 11.8877C4.96467 11.8878 4.96367 11.8878 4.96244 11.8879C4.95998 11.8881 4.95662 11.8883 4.95242 11.8887C4.944 11.8893 4.93215 11.8902 4.91721 11.8914C4.88734 11.8939 4.84498 11.8977 4.79277 11.903C4.68866 11.9138 4.54384 11.931 4.37991 11.9572C4.06464 12.0076 3.63054 12.0985 3.28427 12.2641L3.5 12.7151ZM2 13.9383C2.47412 14.097 2.47411 14.0971 2.4741 14.0971C2.4741 14.0971 2.47409 14.0971 2.47409 14.0971C2.47409 14.0971 2.47411 14.0971 2.47413 14.097C2.47419 14.0968 2.4743 14.0965 2.47446 14.096C2.47478 14.0951 2.47531 14.0935 2.47604 14.0914C2.47751 14.087 2.4798 14.0803 2.4829 14.0713C2.48909 14.0533 2.49849 14.0261 2.51096 13.9908C2.5359 13.9201 2.57308 13.8168 2.62131 13.6883C2.71788 13.4309 2.85823 13.0739 3.03292 12.6761C3.38753 11.8688 3.8644 10.9389 4.38289 10.3216L4 10L3.61711 9.67844C3.00262 10.4101 2.4795 11.4494 2.11735 12.274C1.93367 12.6922 1.78645 13.0667 1.68504 13.337C1.63429 13.4723 1.59488 13.5818 1.56798 13.658C1.55453 13.6961 1.5442 13.7259 1.53713 13.7464C1.5336 13.7567 1.53088 13.7647 1.529 13.7702C1.52806 13.773 1.52733 13.7752 1.52681 13.7767C1.52655 13.7775 1.52634 13.7781 1.52618 13.7786C1.5261 13.7788 1.52604 13.779 1.52599 13.7792C1.52596 13.7792 1.52594 13.7793 1.52592 13.7794C1.5259 13.7794 1.52588 13.7795 2 13.9383ZM2 13.9383C2.36418 14.2809 2.36415 14.2809 2.36413 14.2809C2.36412 14.2809 2.3641 14.281 2.36409 14.281C2.36407 14.281 2.36406 14.281 2.36407 14.281C2.36408 14.281 2.36415 14.2809 2.36427 14.2808C2.3645 14.2805 2.36494 14.2801 2.36558 14.2794C2.36686 14.278 2.36893 14.2759 2.37178 14.2729C2.37748 14.2669 2.38624 14.2577 2.3978 14.2458C2.42093 14.2219 2.4552 14.1868 2.49848 14.1436C2.58527 14.0568 2.7072 13.9383 2.84753 13.8112C3.14094 13.5453 3.46954 13.2839 3.71573 13.1662L3.5 12.7151L3.28427 12.2641C2.89533 12.4501 2.47393 12.8003 2.17612 13.0701C2.02084 13.2108 1.88686 13.341 1.79164 13.4362C1.74392 13.4839 1.70566 13.523 1.67901 13.5506C1.66568 13.5643 1.65524 13.5752 1.64795 13.5829C1.64431 13.5867 1.64146 13.5897 1.63942 13.5919C1.63841 13.5929 1.63759 13.5938 1.63699 13.5944C1.63669 13.5948 1.63644 13.595 1.63625 13.5952C1.63615 13.5953 1.63606 13.5954 1.63599 13.5955C1.63595 13.5955 1.63591 13.5956 1.63589 13.5956C1.63585 13.5956 1.63582 13.5957 2 13.9383ZM4 10L4.42875 10.2572C5.13451 9.08097 6.33179 7.92611 7.38266 7.05004C7.90317 6.61613 8.37809 6.25849 8.72253 6.0096C8.89461 5.88526 9.03376 5.78832 9.1293 5.72286C9.17706 5.69014 9.21389 5.6653 9.23846 5.64885C9.25075 5.64063 9.25996 5.6345 9.26594 5.63054C9.26893 5.62856 9.27111 5.62712 9.27246 5.62623C9.27314 5.62579 9.27361 5.62548 9.27387 5.62531C9.27399 5.62523 9.27407 5.62518 9.27409 5.62516C9.27411 5.62516 9.27408 5.62517 9.27409 5.62517C9.27405 5.62519 9.27401 5.62522 9 5.20699C8.72599 4.78875 8.72592 4.7888 8.72583 4.78886C8.72578 4.78889 8.72568 4.78896 8.72559 4.78902C8.7254 4.78914 8.72515 4.7893 8.72486 4.7895C8.72427 4.78988 8.72346 4.79041 8.72245 4.79108C8.72043 4.79241 8.71756 4.7943 8.71389 4.79674C8.70653 4.80161 8.69591 4.80866 8.68219 4.81785C8.65476 4.83621 8.61493 4.86307 8.56406 4.89793C8.46234 4.96763 8.31633 5.06937 8.13685 5.19906C7.77816 5.45824 7.28433 5.83011 6.74234 6.28194C5.66821 7.17739 4.36549 8.41903 3.57125 9.74275L4 10Z" fill="black"/>
</svg>
