<svg width="16" height="16" viewBox="0 0 16 16" fill="none" xmlns="http://www.w3.org/2000/svg">
<path d="M13 1C14.1046 1 15 1.89543 15 3V13C15 14.1046 14.1046 15 13 15H3C1.89543 15 1 14.1046 1 13V3C1 1.89543 1.89543 1 3 1H13ZM13.7588 6.08301C13.1193 5.50001 12.0492 5.44188 11.3213 5.90918C10.9408 6.15356 10.6834 6.52213 10.6348 6.94727C10.5857 7.37685 10.7584 7.79299 11.0947 8.09961C11.4433 8.41715 11.915 8.50689 12.208 8.57031C12.5662 8.64785 12.7466 8.69904 12.8594 8.80176C12.9841 8.91556 13.0068 9.02432 12.998 9.10156C12.9886 9.18313 12.9344 9.30369 12.7656 9.41211C12.394 9.65068 11.8244 9.59989 11.541 9.3418C11.337 9.1561 11.0209 9.17016 10.835 9.37402C10.6492 9.57804 10.6643 9.89408 10.8682 10.0801C11.5077 10.6629 12.5788 10.7212 13.3066 10.2539C13.6869 10.0095 13.9435 9.63988 13.9922 9.21484C14.0411 8.78553 13.8692 8.36999 13.5332 8.06348C13.1846 7.74567 12.712 7.65524 12.4189 7.5918C12.061 7.51431 11.8813 7.463 11.7686 7.36035C11.6435 7.24638 11.6201 7.13784 11.6289 7.06055C11.6383 6.97898 11.6926 6.85839 11.8613 6.75C12.2331 6.51137 12.8026 6.56299 13.0859 6.82129C13.29 7.00701 13.606 6.99198 13.792 6.78809C13.9777 6.58409 13.9626 6.269 13.7588 6.08301ZM5.23438 5.64258C5.00048 5.49587 4.69168 5.56691 4.54492 5.80078L3.7334 7.0918L2.92383 5.80078C2.7771 5.56695 2.46825 5.49599 2.23438 5.64258C2.00066 5.78934 1.92962 6.0982 2.07617 6.33203L3.14355 8.0332L2.07617 9.73438C1.9296 9.96825 2.00055 10.2771 2.23438 10.4238C2.46817 10.5703 2.77704 10.4993 2.92383 10.2656L3.7334 8.97363L4.54492 10.2656C4.69173 10.4993 5.00057 10.5704 5.23438 10.4238C5.46814 10.2771 5.53815 9.96823 5.3916 9.73438L4.32422 8.0332L5.3916 6.33203C5.53834 6.09818 5.46815 5.7894 5.23438 5.64258ZM7.4375 5.56641C7.16136 5.56641 6.9375 5.79026 6.9375 6.06641V9C6.93769 9.82827 7.60919 10.5 8.4375 10.5H9.28906C9.56483 10.4997 9.78888 10.2758 9.78906 10C9.78888 9.7242 9.56483 9.50031 9.28906 9.5H8.4375C8.16147 9.5 7.93769 9.27598 7.9375 9V6.06641C7.9375 5.7904 7.71346 5.56662 7.4375 5.56641Z" fill="black"/>
</svg>
