<svg width="16" height="16" viewBox="0 0 16 16" fill="none" xmlns="http://www.w3.org/2000/svg">
<path d="M5 1.5H8.47656C8.60666 1.5 8.73188 1.55095 8.8252 1.6416L12.3486 5.06445C12.4454 5.15858 12.5 5.28787 12.5 5.42285V7.5H3.5V3C3.5 2.17157 4.17157 1.5 5 1.5Z" stroke="black"/>
<path d="M8.25 1.50002V4.66666C8.25 5.21895 8.69772 5.66666 9.25 5.66666H12.5" stroke="black"/>
<path d="M13 7C14.1046 7 15 7.89543 15 9V13C15 14.1046 14.1046 15 13 15H3C1.89543 15 1 14.1046 1 13V9C1 7.89543 1.89543 7 3 7H13ZM5.77734 9.08398C5.54758 8.93081 5.23716 8.99289 5.08398 9.22266L4.5 10.0986L3.91602 9.22266C3.76284 8.9929 3.45242 8.93081 3.22266 9.08398C2.9929 9.23716 2.93081 9.54758 3.08398 9.77734L3.89844 11L3.08398 12.2227C2.93081 12.4524 2.99289 12.7628 3.22266 12.916C3.45242 13.0692 3.76284 13.0071 3.91602 12.7773L4.5 11.9014L5.08398 12.7773C5.23716 13.0071 5.54758 13.0692 5.77734 12.916C6.00711 12.7628 6.06919 12.4524 5.91602 12.2227L5.10059 11L5.91602 9.77734C6.06919 9.54758 6.00711 9.23716 5.77734 9.08398ZM7.5 9C7.22386 9 7 9.22386 7 9.5V11.5C7 12.3284 7.67157 13 8.5 13H9C9.27614 13 9.5 12.7761 9.5 12.5C9.5 12.2239 9.27614 12 9 12H8.5C8.22386 12 8 11.7761 8 11.5V9.5C8 9.22386 7.77614 9 7.5 9ZM11.7998 8.95312C11.4462 8.93091 11.0641 9.0032 10.7412 9.19824C10.4157 9.395 10.1776 9.70492 10.1318 10.0811C10.0855 10.4639 10.2499 10.8217 10.5439 11.0742C10.8481 11.3352 11.255 11.4052 11.4854 11.4521C11.7828 11.5128 11.905 11.5506 11.9746 11.6104C12.016 11.646 12.0332 11.6754 12.04 11.6914C12.0463 11.7061 12.0468 11.7162 12.0459 11.7236C12.0445 11.7346 12.0302 11.7991 11.9111 11.8711C11.7886 11.9449 11.6155 11.9861 11.4326 11.9746C11.2485 11.9629 11.1002 11.9011 11.0127 11.8262C10.8032 11.6464 10.4875 11.6705 10.3076 11.8799C10.128 12.0894 10.1521 12.4042 10.3613 12.584C10.6476 12.8296 11.0178 12.9505 11.3701 12.9727C11.7237 12.9949 12.1059 12.9225 12.4287 12.7275C12.7544 12.5308 12.9933 12.22 13.0391 11.8438C13.0854 11.4609 12.9192 11.104 12.625 10.8516C12.3211 10.5908 11.916 10.5196 11.6855 10.4727C11.3885 10.4121 11.266 10.375 11.1963 10.3154C11.1548 10.2799 11.1368 10.2504 11.1299 10.2344C11.1235 10.2194 11.1231 10.2087 11.124 10.2012C11.1255 10.1901 11.1396 10.1263 11.2578 10.0547C11.3803 9.98066 11.5542 9.93964 11.7373 9.95117C11.9216 9.96282 12.0697 10.0246 12.1572 10.0996C12.3668 10.2793 12.6835 10.2544 12.8633 10.0449C13.0426 9.83544 13.0188 9.51958 12.8096 9.33984C12.5233 9.09431 12.152 8.97534 11.7998 8.95312Z" fill="#529F00"/>
</svg>
