<svg width="16" height="16" viewBox="0 0 16 16" fill="none" xmlns="http://www.w3.org/2000/svg">
<path d="M3 4.5625H9.9375C10.7659 4.5625 11.4375 5.23407 11.4375 6.0625V13C11.4375 13.8284 10.7659 14.5 9.9375 14.5H3C2.17157 14.5 1.5 13.8284 1.5 13V6.0625C1.5 5.28584 2.09028 4.64711 2.84668 4.57031L3 4.5625Z" stroke="black"/>
<path d="M13.2041 1.01074C14.2128 1.113 15 1.96435 15 3V9.9375L14.9893 10.1416C14.8938 11.0832 14.1457 11.8313 13.2041 11.9268L13 11.9375H11.9375V10.9375H13C13.5523 10.9375 14 10.4898 14 9.9375V3C14 2.44772 13.5523 2 13 2H6.0625C5.51022 2 5.0625 2.44772 5.0625 3V4.0625H4.0625V3C4.0625 1.96435 4.84972 1.113 5.8584 1.01074L6.0625 1H13L13.2041 1.01074Z" fill="black"/>
</svg>
